G04 ================== begin FILE IDENTIFICATION RECORD ==================*
G04 Layout Name:  ee157lab2_crystal_oscillator.brd*
G04 Film Name:    SMB*
G04 File Format:  Gerber RS274X*
G04 File Origin:  Cadence Allegro 16.6-2015-S059*
G04 Origin Date:  Wed Feb 13 22:44:04 2019*
G04 *
G04 Layer:  VIA CLASS/SOLDERMASK_BOTTOM*
G04 Layer:  PIN/SOLDERMASK_BOTTOM*
G04 Layer:  BOARD GEOMETRY/SOLDERMASK_BOTTOM*
G04 *
G04 Offset:    (0.0 0.0)*
G04 Mirror:    No*
G04 Mode:      Positive*
G04 Rotation:  0*
G04 FullContactRelief:  No*
G04 UndefLineWidth:     0.0*
G04 ================== end FILE IDENTIFICATION RECORD ====================*
%FSLAX45Y45*MOIN*%
%IR0*IPPOS*OFA0.00000B0.00000*MIA0B0*SFA1.00000B1.00000*%
%ADD13C,.075*%
%ADD10C,.076*%
%ADD12R,.075X.075*%
%ADD11R,.076X.076*%
%ADD14C,.005*%
G75*
%LPD*%
G75*
G54D10*
X526000Y558000D03*
X711000Y597000D03*
X721000Y501000D03*
Y597000D03*
X731000Y501000D03*
G54D11*
X526000Y568000D03*
X731000Y597000D03*
X741000Y501000D03*
G54D12*
X577000Y577000D03*
G54D13*
X587000D03*
X597000D03*
G54D14*
G01X470570Y410670D02*
X471080Y410250D01*
X471650Y410000D01*
X472150D01*
X472660Y410250D01*
X473040Y410670D01*
X473230Y411250D01*
X473100Y411830D01*
X472790Y412330D01*
X472220Y412670D01*
X471460Y412830D01*
X471010Y413170D01*
X470820Y413750D01*
X470950Y414330D01*
X471270Y414750D01*
X471710Y415000D01*
X472150D01*
X472600Y414830D01*
X472980Y414420D01*
G01X475350Y410000D02*
Y415000D01*
X477000Y410830D01*
X478650Y415000D01*
Y410000D01*
G01X482610Y412670D02*
X482860Y412920D01*
X483050Y413330D01*
X483180Y413920D01*
X483050Y414420D01*
X482800Y414750D01*
X482350Y415000D01*
X480640D01*
Y410000D01*
X482730D01*
X483180Y410330D01*
X483430Y410830D01*
X483560Y411420D01*
X483430Y412000D01*
X483050Y412500D01*
X482610Y412670D01*
X480640D01*
M02*
