G04 ================== begin FILE IDENTIFICATION RECORD ==================*
G04 Layout Name:  ee157lab2_crystal_oscillator.brd*
G04 Film Name:    SMT*
G04 File Format:  Gerber RS274X*
G04 File Origin:  Cadence Allegro 16.6-2015-S059*
G04 Origin Date:  Thu Feb 14 18:39:41 2019*
G04 *
G04 Layer:  VIA CLASS/SOLDERMASK_TOP*
G04 Layer:  PIN/SOLDERMASK_TOP*
G04 Layer:  BOARD GEOMETRY/SOLDERMASK_TOP*
G04 *
G04 Offset:    (0.0 0.0)*
G04 Mirror:    No*
G04 Mode:      Positive*
G04 Rotation:  0*
G04 FullContactRelief:  No*
G04 UndefLineWidth:     0.0*
G04 ================== end FILE IDENTIFICATION RECORD ====================*
%FSLAX45Y45*MOIN*%
%IR0*IPPOS*OFA0.00000B0.00000*MIA0B0*SFA1.00000B1.00000*%
%ADD15C,.075*%
%ADD12R,.05X.05*%
%ADD10C,.076*%
%ADD14R,.075X.075*%
%ADD11R,.076X.076*%
%ADD13R,.0846X.0866*%
%ADD16C,.005*%
G75*
%LPD*%
G75*
G54D10*
X526000Y558000D03*
X711000Y597000D03*
X721000Y501000D03*
Y597000D03*
X731000Y501000D03*
G54D11*
X526000Y568000D03*
X731000Y597000D03*
X741000Y501000D03*
G54D12*
X550500Y549000D03*
Y557400D03*
X597000Y548500D03*
Y556900D03*
X674000Y557000D03*
X682400D03*
X682500Y571500D03*
Y579900D03*
X699500Y573500D03*
X692500Y612000D03*
Y620400D03*
X707900Y573500D03*
X712500Y584500D03*
X720900D03*
X721000Y612000D03*
X712600D03*
X731000Y480500D03*
X722600D03*
X731100Y519500D03*
X731000Y548600D03*
Y557000D03*
X741000Y480500D03*
Y472100D03*
X739500Y519500D03*
X744600Y597000D03*
X761600Y501000D03*
X753000Y597000D03*
X770000Y501000D03*
G54D13*
X550500Y577000D03*
Y595000D03*
G54D14*
X577000Y577000D03*
G54D15*
X587000D03*
X597000D03*
G54D16*
G01X450570Y410670D02*
X451080Y410250D01*
X451650Y410000D01*
X452150D01*
X452660Y410250D01*
X453040Y410670D01*
X453230Y411250D01*
X453100Y411830D01*
X452790Y412330D01*
X452220Y412670D01*
X451460Y412830D01*
X451010Y413170D01*
X450820Y413750D01*
X450950Y414330D01*
X451270Y414750D01*
X451710Y415000D01*
X452150D01*
X452600Y414830D01*
X452980Y414420D01*
G01X455350Y410000D02*
Y415000D01*
X457000Y410830D01*
X458650Y415000D01*
Y410000D01*
G01X462100Y415000D02*
Y410000D01*
G01X460640Y415000D02*
X463560D01*
M02*
