G04 ================== begin FILE IDENTIFICATION RECORD ==================*
G04 Layout Name:  ee157lab2_crystal_oscillator.brd*
G04 Film Name:    SSB*
G04 File Format:  Gerber RS274X*
G04 File Origin:  Cadence Allegro 16.6-2015-S059*
G04 Origin Date:  Thu Feb 14 18:39:41 2019*
G04 *
G04 Layer:  MANUFACTURING/AUTOSILK_BOTTOM*
G04 *
G04 Offset:    (0.0 0.0)*
G04 Mirror:    No*
G04 Mode:      Positive*
G04 Rotation:  0*
G04 FullContactRelief:  No*
G04 UndefLineWidth:     0.0*
G04 ================== end FILE IDENTIFICATION RECORD ====================*
%FSLAX45Y45*MOIN*%
%IR0*IPPOS*OFA0.00000B0.00000*MIA0B0*SFA1.00000B1.00000*%
%ADD10C,.005*%
%ADD11C,.008*%
G75*
%LPD*%
G75*
G54D10*
G01X738760Y583100D02*
X739510Y583220D01*
X740160Y583720D01*
X740720Y584470D01*
X741090Y585350D01*
X741280Y586350D01*
Y587350D01*
X741090Y588350D01*
X740720Y589230D01*
X740160Y589970D01*
X739510Y590480D01*
X738760Y590600D01*
X738010Y590480D01*
X737360Y589970D01*
X736800Y589230D01*
X736430Y588350D01*
X736240Y587350D01*
Y586350D01*
X736430Y585350D01*
X736800Y584470D01*
X737360Y583720D01*
X738010Y583220D01*
X738760Y583100D01*
G01X738010Y585100D02*
X736890Y583100D01*
G01X731260D02*
Y590600D01*
X732380Y589100D01*
G01Y583100D02*
X730140D01*
G01X748760Y487100D02*
X749510Y487220D01*
X750160Y487720D01*
X750720Y488470D01*
X751090Y489350D01*
X751280Y490350D01*
Y491350D01*
X751090Y492350D01*
X750720Y493230D01*
X750160Y493970D01*
X749510Y494480D01*
X748760Y494600D01*
X748010Y494480D01*
X747360Y493970D01*
X746800Y493230D01*
X746430Y492350D01*
X746240Y491350D01*
Y490350D01*
X746430Y489350D01*
X746800Y488470D01*
X747360Y487720D01*
X748010Y487220D01*
X748760Y487100D01*
G01X748010Y489100D02*
X746890Y487100D01*
G01X743030Y493350D02*
X742470Y494100D01*
X741820Y494480D01*
X741070Y494600D01*
X740140Y494350D01*
X739490Y493720D01*
X739300Y492980D01*
X739390Y492220D01*
X739770Y491600D01*
X741630Y490350D01*
X742470Y489470D01*
X743030Y488220D01*
X743220Y487100D01*
X739300D01*
G54D11*
G01X645500Y589700D02*
X660500D01*
Y549700D01*
X645500D01*
Y589700D01*
G01X705500Y602000D02*
Y592000D01*
G01D02*
X711000D01*
G01X736500Y602000D02*
X705500D01*
G01X715500Y506000D02*
Y496000D01*
G01D02*
X721000D01*
G01X746500Y506000D02*
X715500D01*
G01X711000Y592000D02*
X721000D01*
G01Y496000D02*
X731000D01*
G01X721000Y592000D02*
X731000D01*
G01Y496000D02*
X741000D01*
G01X736500Y592000D02*
Y602000D01*
G01X731000Y592000D02*
X736500D01*
G01X746500Y496000D02*
Y506000D01*
G01X741000Y496000D02*
X746500D01*
M02*
