G04 ================== begin FILE IDENTIFICATION RECORD ==================*
G04 Layout Name:  ee157lab2_crystal_oscillator.brd*
G04 Film Name:    SST*
G04 File Format:  Gerber RS274X*
G04 File Origin:  Cadence Allegro 16.6-2015-S059*
G04 Origin Date:  Wed Feb 13 22:44:04 2019*
G04 *
G04 Layer:  MANUFACTURING/AUTOSILK_TOP*
G04 *
G04 Offset:    (0.0 0.0)*
G04 Mirror:    No*
G04 Mode:      Positive*
G04 Rotation:  0*
G04 FullContactRelief:  No*
G04 UndefLineWidth:     0.0*
G04 ================== end FILE IDENTIFICATION RECORD ====================*
%FSLAX45Y45*MOIN*%
%IR0*IPPOS*OFA0.00000B0.00000*MIA0B0*SFA1.00000B1.00000*%
%ADD10C,.005*%
%ADD11C,.006*%
%ADD12C,.008*%
G75*
%LPD*%
G75*
G54D10*
G01X537000Y574870D02*
X536500Y574550D01*
X536170Y574170D01*
X536000Y573730D01*
X536170Y573220D01*
X536500Y572840D01*
X537000Y572460D01*
X537670Y572330D01*
X541000D01*
G01X536000Y568500D02*
X541000D01*
X540000Y569260D01*
G01X536000D02*
Y567740D01*
G01X624500Y606250D02*
X619130D01*
X618000Y605880D01*
X617250Y605130D01*
X617000Y604200D01*
X617250Y603270D01*
X618000Y602520D01*
X619130Y602150D01*
X624500D01*
G01X617000Y596700D02*
X624500D01*
X623000Y597820D01*
G01X617000D02*
Y595580D01*
G54D11*
G01X546750Y545200D02*
Y561200D01*
G01X554250Y545200D02*
X546750D01*
G01Y561200D02*
X554250D01*
G01X557000Y572950D02*
X551100D01*
G01X544250D02*
Y593250D01*
G01X549400Y572950D02*
X544250D01*
G01X550250Y572100D02*
X549400Y572950D01*
G01X551100D02*
X550250Y572100D01*
G01X544250Y593250D02*
X557000D01*
G01X554250Y561200D02*
Y545200D01*
G01X557000Y593250D02*
Y572950D01*
G01X593250Y544700D02*
Y560700D01*
G01X600750Y544700D02*
X593250D01*
G01Y560700D02*
X600750D01*
G01D02*
Y544700D01*
G01X670200Y560750D02*
X686200D01*
G01X670200Y553250D02*
Y560750D01*
G01X686200Y553250D02*
X670200D01*
G01X686200Y560750D02*
Y553250D01*
G01X678750Y567700D02*
Y583700D01*
G01X686250Y567700D02*
X678750D01*
G01X686250Y583700D02*
Y567700D01*
G01X678750Y583700D02*
X686250D01*
G01X695700Y569750D02*
Y577250D01*
G01X711700Y569750D02*
X695700D01*
G01Y577250D02*
X711700D01*
G01X688750Y608200D02*
Y624200D01*
G01X696250Y608200D02*
X688750D01*
G01X696250Y624200D02*
Y608200D01*
G01X688750Y624200D02*
X696250D01*
G01X708700Y580750D02*
Y588250D01*
G01X724700Y580750D02*
X708700D01*
G01Y588250D02*
X724700D01*
G01X708800Y608250D02*
Y615750D01*
G01X724800Y608250D02*
X708800D01*
G01Y615750D02*
X724800D01*
G01X718800Y476750D02*
Y484250D01*
G01X734800Y476750D02*
X718800D01*
G01Y484250D02*
X734800D01*
G01X711700Y577250D02*
Y569750D01*
G01X727300Y515750D02*
Y523250D01*
G01X743300Y515750D02*
X727300D01*
G01Y523250D02*
X743300D01*
G01X734750Y544800D02*
X727250D01*
G01D02*
Y560800D01*
G01D02*
X734750D01*
G01X724700Y588250D02*
Y580750D01*
G01X724800Y615750D02*
Y608250D01*
G01X744750Y468300D02*
X737250D01*
G01D02*
Y484300D01*
G01X734800Y484250D02*
Y476750D01*
G01X737250Y484300D02*
X744750D01*
G01X734750Y560800D02*
Y544800D01*
G01X744750Y484300D02*
Y468300D01*
G01X743300Y523250D02*
Y515750D01*
G01X740800Y593250D02*
Y600750D01*
G01X756800Y593250D02*
X740800D01*
G01Y600750D02*
X756800D01*
G01X757800Y497250D02*
Y504750D01*
G01X773800Y497250D02*
X757800D01*
G01Y504750D02*
X773800D01*
G01X756800Y600750D02*
Y593250D01*
G01X773800Y504750D02*
Y497250D01*
G54D12*
G01X521000Y553000D02*
X531000D01*
G01X521000Y573000D02*
Y553000D01*
G01X531000Y573000D02*
X521000D01*
G01X531000Y553000D02*
Y573000D01*
G01X566000Y584000D02*
X608000D01*
G01X566000Y648500D02*
Y584000D01*
G01Y613500D02*
X608000D01*
G01Y648500D02*
X566000D01*
G01X608000Y584000D02*
Y648500D01*
M02*
