G04 ================== begin FILE IDENTIFICATION RECORD ==================*
G04 Layout Name:  ee174tutorial.brd*
G04 Film Name:    handset_v1_SMT*
G04 File Format:  Gerber RS274X*
G04 File Origin:  Cadence Allegro 16.6-2015-S059*
G04 Origin Date:  Fri Jan 04 11:53:32 2019*
G04 *
G04 Layer:  VIA CLASS/SOLDERMASK_TOP*
G04 Layer:  PIN/SOLDERMASK_TOP*
G04 Layer:  BOARD GEOMETRY/SOLDERMASK_TOP*
G04 *
G04 Offset:    (0.0 0.0)*
G04 Mirror:    No*
G04 Mode:      Positive*
G04 Rotation:  0*
G04 FullContactRelief:  No*
G04 UndefLineWidth:     0.0*
G04 ================== end FILE IDENTIFICATION RECORD ====================*
%FSLAX25Y25*MOIN*%
%IR0*IPPOS*OFA0.00000B0.00000*MIA0B0*SFA1.00000B1.00000*%
%ADD21C,.114*%
%ADD10C,.145*%
%ADD11C,.05*%
%ADD17C,.06*%
%ADD19O,.024X.086*%
%ADD24C,.056*%
%ADD18R,.024X.086*%
%ADD23C,.057*%
%ADD22R,.05X.05*%
%ADD15C,.058*%
%ADD12C,.067*%
%ADD20R,.048X.076*%
%ADD14R,.056X.056*%
%ADD16R,.058X.058*%
%ADD13R,.067X.067*%
%ADD25C,.008*%
G75*
%LPD*%
G75*
G54D10*
X10000Y10000D03*
X30000Y340000D03*
X10000Y590000D03*
X170000Y340000D03*
X190000Y10000D03*
Y590000D03*
G54D20*
X33900Y452050D03*
X41800D03*
X55400Y457550D03*
X63300D03*
G54D11*
X25500Y233000D03*
X41800Y442300D03*
X62500Y186000D03*
X63300Y446800D03*
X78700Y464500D03*
X85000Y513000D03*
X90500Y239500D03*
G54D12*
X24000Y475600D03*
X20400Y457600D03*
X24000Y505600D03*
Y495600D03*
Y485600D03*
Y535600D03*
Y525600D03*
Y515600D03*
Y555600D03*
Y545600D03*
X108800Y442400D03*
X98800Y452400D03*
X108800D03*
X118800Y442400D03*
Y452400D03*
X155900Y29200D03*
X175600Y501600D03*
Y491600D03*
Y481600D03*
Y531600D03*
Y521600D03*
Y511600D03*
Y561600D03*
Y551600D03*
Y541600D03*
G54D21*
X75610Y28600D03*
X126790D03*
G54D13*
X10400Y457600D03*
X24000Y565600D03*
X98800Y442400D03*
X145900Y29200D03*
X175600Y571600D03*
G54D22*
X84800Y495550D03*
X76400D03*
X161800Y531650D03*
X153400D03*
X161800Y541750D03*
X153400D03*
G54D14*
X49950Y48800D03*
G54D23*
X101200Y28600D03*
X89390D03*
X113010D03*
G54D15*
X51600Y147900D03*
X55400Y176800D03*
Y206800D03*
X45400D03*
X45100Y221600D03*
X55100D03*
Y251600D03*
X45100D03*
X77900Y100200D03*
X87900D03*
X61600Y147900D03*
X71600D03*
X81600D03*
X87900Y130200D03*
X77900D03*
X67900D03*
X61600Y157900D03*
X71600D03*
X81600D03*
X65400Y176800D03*
X75400D03*
X85400D03*
Y206800D03*
X75400D03*
X65400D03*
X65100Y221600D03*
X75100D03*
X85100D03*
Y251600D03*
X75100D03*
X65100D03*
X97900Y100200D03*
X107900D03*
X117900D03*
X101600Y147900D03*
X111600D03*
X117900Y130200D03*
X107900D03*
X97900D03*
X91600Y157900D03*
X101600D03*
X111600D03*
X95400Y176800D03*
X105400D03*
X115400D03*
Y206800D03*
X105400D03*
X95400D03*
X95100Y221600D03*
X105100D03*
X115100D03*
Y251600D03*
X105100D03*
X95100D03*
X127900Y100200D03*
X121600Y147900D03*
X127900Y130200D03*
X121600Y157900D03*
X125400Y176800D03*
Y206800D03*
X125100Y221600D03*
X135100D03*
X125100Y251600D03*
G54D24*
X89950Y48800D03*
G54D25*
G01X-26300Y10840D02*
X-25670Y10310D01*
X-24960Y10000D01*
X-24340D01*
X-23710Y10310D01*
X-23240Y10840D01*
X-23000Y11580D01*
X-23160Y12310D01*
X-23550Y12940D01*
X-24260Y13360D01*
X-25200Y13570D01*
X-25750Y13990D01*
X-25980Y14720D01*
X-25820Y15460D01*
X-25430Y15980D01*
X-24890Y16300D01*
X-24340D01*
X-23790Y16090D01*
X-23320Y15560D01*
G01X-20390Y10000D02*
Y16300D01*
X-18350Y11050D01*
X-16310Y16300D01*
Y10000D01*
G01X-12050Y16300D02*
Y10000D01*
G01X-13850Y16300D02*
X-10250D01*
G54D16*
X51600Y157900D03*
X45400Y176800D03*
X67900Y100200D03*
X91600Y147900D03*
X135100Y251600D03*
G54D17*
X32400Y294700D03*
Y274700D03*
X33000Y358700D03*
Y378700D03*
X80400Y274300D03*
Y294300D03*
X62400Y294700D03*
Y274700D03*
X81200Y316700D03*
X81100Y358300D03*
X81200Y336700D03*
X63000Y358700D03*
X81100Y378300D03*
X63000Y378700D03*
X79900Y418300D03*
Y398300D03*
X110400Y274300D03*
Y294300D03*
X111200Y316700D03*
X111100Y358300D03*
X111200Y336700D03*
X111100Y378300D03*
X109900Y418300D03*
Y398300D03*
X125200Y274300D03*
Y294300D03*
X128700Y358300D03*
Y378300D03*
X155200Y274300D03*
Y294300D03*
X158700Y358300D03*
Y378300D03*
G54D18*
X44800Y474500D03*
G54D19*
X49800D03*
X54800D03*
Y495500D03*
X49800D03*
X44800D03*
X59800Y474500D03*
Y495500D03*
M02*
