G04 ================== begin FILE IDENTIFICATION RECORD ==================*
G04 Layout Name:  ee174tutorial.brd*
G04 Film Name:    handset_v1_TOP*
G04 File Format:  Gerber RS274X*
G04 File Origin:  Cadence Allegro 16.6-2015-S059*
G04 Origin Date:  Fri Jan 04 11:53:32 2019*
G04 *
G04 Layer:  VIA CLASS/TOP*
G04 Layer:  PIN/TOP*
G04 Layer:  ETCH/TOP*
G04 *
G04 Offset:    (0.0 0.0)*
G04 Mirror:    No*
G04 Mode:      Positive*
G04 Rotation:  0*
G04 FullContactRelief:  No*
G04 UndefLineWidth:     0.0*
G04 ================== end FILE IDENTIFICATION RECORD ====================*
%FSLAX25Y25*MOIN*%
%IR0*IPPOS*OFA0.00000B0.00000*MIA0B0*SFA1.00000B1.00000*%
%ADD21C,.109*%
%ADD11C,.03*%
%ADD17C,.06*%
%ADD23C,.052*%
%ADD10C,.025*%
%ADD19O,.024X.086*%
%ADD12C,.062*%
%ADD24C,.056*%
%ADD18R,.024X.086*%
%ADD22R,.05X.05*%
%ADD15C,.058*%
%ADD14R,.052X.052*%
%ADD13R,.062X.062*%
%ADD20R,.048X.076*%
%ADD16R,.058X.058*%
%ADD25C,.008*%
%ADD26C,.012*%
%ADD27C,.05*%
G75*
%LPD*%
G75*
G54D10*
G01X25500Y233000D02*
X123700D01*
X135100Y221600D01*
G01X44800Y495500D02*
X29260D01*
X29160Y495600D01*
X24000D01*
G01X54800Y495500D02*
X59800D01*
G01X49800D02*
X54800D01*
G01X44800D02*
X49800D01*
X10000Y10000D03*
X30000Y340000D03*
X10000Y590000D03*
X170000Y340000D03*
X190000Y10000D03*
Y590000D03*
G54D20*
X33900Y452050D03*
X41800D03*
X55400Y457550D03*
X63300D03*
G54D11*
X25500Y233000D03*
X41800Y442300D03*
X62500Y186000D03*
X63300Y446800D03*
X78700Y464500D03*
X85000Y513000D03*
X90500Y239500D03*
G54D12*
X24000Y475600D03*
X20400Y457600D03*
X24000Y505600D03*
Y495600D03*
Y485600D03*
Y535600D03*
Y525600D03*
Y515600D03*
Y555600D03*
Y545600D03*
X108800Y442400D03*
X98800Y452400D03*
X108800D03*
X118800Y442400D03*
Y452400D03*
X155900Y29200D03*
X175600Y501600D03*
Y491600D03*
Y481600D03*
Y531600D03*
Y521600D03*
Y511600D03*
Y561600D03*
Y551600D03*
Y541600D03*
G54D21*
X75610Y28600D03*
X126790D03*
G54D13*
X10400Y457600D03*
X24000Y565600D03*
X98800Y442400D03*
X145900Y29200D03*
X175600Y571600D03*
G54D22*
X84800Y495550D03*
X76400D03*
X161800Y531650D03*
X153400D03*
X161800Y541750D03*
X153400D03*
G54D14*
X49950Y48800D03*
G54D23*
X101200Y28600D03*
X89390D03*
X113010D03*
G54D15*
X51600Y147900D03*
X55400Y176800D03*
Y206800D03*
X45400D03*
X45100Y221600D03*
X55100D03*
Y251600D03*
X45100D03*
X77900Y100200D03*
X87900D03*
X61600Y147900D03*
X71600D03*
X81600D03*
X87900Y130200D03*
X77900D03*
X67900D03*
X61600Y157900D03*
X71600D03*
X81600D03*
X65400Y176800D03*
X75400D03*
X85400D03*
Y206800D03*
X75400D03*
X65400D03*
X65100Y221600D03*
X75100D03*
X85100D03*
Y251600D03*
X75100D03*
X65100D03*
X97900Y100200D03*
X107900D03*
X117900D03*
X101600Y147900D03*
X111600D03*
X117900Y130200D03*
X107900D03*
X97900D03*
X91600Y157900D03*
X101600D03*
X111600D03*
X95400Y176800D03*
X105400D03*
X115400D03*
Y206800D03*
X105400D03*
X95400D03*
X95100Y221600D03*
X105100D03*
X115100D03*
Y251600D03*
X105100D03*
X95100D03*
X127900Y100200D03*
X121600Y147900D03*
X127900Y130200D03*
X121600Y157900D03*
X125400Y176800D03*
Y206800D03*
X125100Y221600D03*
X135100D03*
X125100Y251600D03*
G54D24*
X89950Y48800D03*
G54D25*
G01X-24150Y3800D02*
Y-2500D01*
G01X-25950Y3800D02*
X-22350D01*
G01X-17850Y-2500D02*
X-18480Y-2400D01*
X-19020Y-1980D01*
X-19500Y-1350D01*
X-19810Y-610D01*
X-19970Y230D01*
Y1070D01*
X-19810Y1910D01*
X-19500Y2650D01*
X-19020Y3270D01*
X-18480Y3700D01*
X-17850Y3800D01*
X-17220Y3700D01*
X-16680Y3270D01*
X-16200Y2650D01*
X-15890Y1910D01*
X-15730Y1070D01*
Y230D01*
X-15890Y-610D01*
X-16200Y-1350D01*
X-16680Y-1980D01*
X-17220Y-2400D01*
X-17850Y-2500D01*
G01X-13120D02*
Y3800D01*
X-11240D01*
X-10610Y3480D01*
X-10140Y2750D01*
X-9980Y1910D01*
X-10140Y1070D01*
X-10530Y440D01*
X-11240Y120D01*
X-13120D01*
G54D16*
X51600Y157900D03*
X45400Y176800D03*
X67900Y100200D03*
X91600Y147900D03*
X135100Y251600D03*
G54D26*
G01X33900Y452050D02*
X15950D01*
X10400Y457600D01*
G01X11300Y495600D02*
X10100Y494400D01*
G01Y462400D02*
X10400Y462100D01*
Y457600D01*
G01X11300Y495600D02*
Y524400D01*
X12500Y525600D01*
X24000D01*
G01X175600Y521600D02*
X171100D01*
X171000Y521500D01*
X53500D01*
X37600Y505600D01*
X24000D01*
G01X153400Y531650D02*
X30050D01*
X24000Y525600D01*
G01X55400Y206800D02*
Y189100D01*
X58500Y186000D01*
X62500D01*
G01X55100Y221600D02*
X55000Y221500D01*
Y216500D01*
X57000Y214500D01*
X78500D01*
X80500Y212500D01*
Y175610D01*
X87300Y168810D01*
Y144420D01*
X87900Y143820D01*
Y130200D01*
G01X41800Y452050D02*
Y442300D01*
G01X59800Y474500D02*
Y477600D01*
X57200Y480200D01*
X52400D01*
X49800Y477600D01*
Y474500D01*
G01X54800D02*
Y463350D01*
X55400Y462750D01*
Y458950D01*
G01X44800Y474500D02*
Y464200D01*
G01X55400Y458950D02*
Y457550D01*
G01X107900Y100200D02*
X100200Y92500D01*
X75600D01*
X67900Y100200D01*
G01X85400Y206800D02*
X91000Y201200D01*
Y175110D01*
X95900Y170210D01*
Y144420D01*
X92500Y141020D01*
Y104800D01*
X87900Y100200D01*
G01X63300Y457550D02*
Y446800D01*
G01X90500Y239500D02*
Y452700D01*
X78700Y464500D01*
G01D02*
X78400Y464800D01*
X78200D01*
X68500Y474500D01*
X59800D01*
G01Y495500D02*
X72450D01*
X72500Y495550D01*
X76400D01*
G01X84800D02*
X97800D01*
X99000Y494350D01*
Y457100D01*
X98800Y456900D01*
Y452400D01*
G01X85000Y513000D02*
Y510100D01*
X84800Y509900D01*
Y495550D01*
G01X97900Y100200D02*
X107900D01*
G01X115100Y221600D02*
Y211400D01*
X115400Y211100D01*
Y206800D01*
G01X105100Y221600D02*
Y211400D01*
X105400Y211100D01*
Y206800D01*
G01X95100Y221600D02*
Y211400D01*
X95400Y211100D01*
Y206800D01*
G01X175600Y531600D02*
X183500Y523700D01*
Y461000D01*
X179400Y456900D01*
X113300D01*
X108800Y452400D01*
G01X125100Y221600D02*
Y211400D01*
X125400Y211100D01*
Y206800D01*
G01X175600Y541600D02*
X186500Y530700D01*
Y458000D01*
X180900Y452400D01*
X118800D01*
G01X153400Y531650D02*
Y541750D01*
G01X161800Y531650D02*
X171050D01*
X171100Y531600D01*
X175600D01*
G01X161800Y541750D02*
X170950D01*
X171100Y541600D01*
X175600D01*
G54D17*
X32400Y294700D03*
Y274700D03*
X33000Y358700D03*
Y378700D03*
X80400Y274300D03*
Y294300D03*
X62400Y294700D03*
Y274700D03*
X81200Y316700D03*
X81100Y358300D03*
X81200Y336700D03*
X63000Y358700D03*
X81100Y378300D03*
X63000Y378700D03*
X79900Y418300D03*
Y398300D03*
X110400Y274300D03*
Y294300D03*
X111200Y316700D03*
X111100Y358300D03*
X111200Y336700D03*
X111100Y378300D03*
X109900Y418300D03*
Y398300D03*
X125200Y274300D03*
Y294300D03*
X128700Y358300D03*
Y378300D03*
X155200Y274300D03*
Y294300D03*
X158700Y358300D03*
Y378300D03*
G54D27*
G01X10100Y494400D02*
Y462400D01*
G01X20400Y457600D02*
X26800Y464000D01*
X45000D01*
G01X24000Y495600D02*
X11300D01*
G01X44800Y464200D02*
X45000Y464000D01*
G01D02*
X50350D01*
X55400Y458950D01*
G54D18*
X44800Y474500D03*
G54D19*
X49800D03*
X54800D03*
Y495500D03*
X49800D03*
X44800D03*
X59800Y474500D03*
Y495500D03*
M02*
