G04 ================== begin FILE IDENTIFICATION RECORD ==================*
G04 Layout Name:  ee174tutorial.brd*
G04 Film Name:    handset_v1_SSB*
G04 File Format:  Gerber RS274X*
G04 File Origin:  Cadence Allegro 16.6-2015-S059*
G04 Origin Date:  Fri Jan 04 11:53:32 2019*
G04 *
G04 Layer:  REF DES/SILKSCREEN_BOTTOM*
G04 Layer:  PACKAGE GEOMETRY/SILKSCREEN_BOTTOM*
G04 Layer:  BOARD GEOMETRY/SILKSCREEN_BOTTOM*
G04 *
G04 Offset:    (0.0 0.0)*
G04 Mirror:    No*
G04 Mode:      Positive*
G04 Rotation:  0*
G04 FullContactRelief:  No*
G04 UndefLineWidth:     0.0*
G04 ================== end FILE IDENTIFICATION RECORD ====================*
%FSLAX25Y25*MOIN*%
%IR0*IPPOS*OFA0.00000B0.00000*MIA0B0*SFA1.00000B1.00000*%
%ADD10C,.005*%
%ADD11C,.006*%
%ADD12C,.008*%
G75*
%LPD*%
G75*
G54D10*
G01X40630Y148380D02*
X40860Y148070D01*
X41130Y147910D01*
X41440Y147860D01*
X41820Y147960D01*
X42090Y148220D01*
X42170Y148530D01*
X42130Y148840D01*
X41970Y149100D01*
X41210Y149620D01*
X40860Y149980D01*
X40630Y150500D01*
X40550Y150960D01*
X42170D01*
G01X41360Y160960D02*
Y157860D01*
X40900Y158480D01*
G01Y160960D02*
X41820D01*
G01X132470D02*
Y157860D01*
X132010Y158480D01*
G01Y160960D02*
X132930D01*
G01X134730Y160500D02*
X134960Y160750D01*
X135220Y160910D01*
X135570Y160960D01*
X135920Y160860D01*
X136180Y160650D01*
X136380Y160290D01*
X136410Y159880D01*
X136340Y159460D01*
X136140Y159200D01*
X135880Y159000D01*
X135610Y158950D01*
X135340Y159000D01*
X135000Y159200D01*
X135110Y157860D01*
X136140D01*
G01X132470Y150960D02*
Y147860D01*
X132010Y148480D01*
G01Y150960D02*
X132930D01*
G01X134840Y149670D02*
X135110Y149310D01*
X135340Y149100D01*
X135650Y149000D01*
X135920Y149100D01*
X136110Y149310D01*
X136260Y149620D01*
X136300Y149980D01*
X136260Y150290D01*
X136110Y150600D01*
X135880Y150860D01*
X135610Y150960D01*
X135300Y150860D01*
X135030Y150550D01*
X134880Y150080D01*
X134840Y149570D01*
X134920Y148890D01*
X135030Y148530D01*
X135220Y148170D01*
X135490Y147910D01*
X135760Y147860D01*
X136030Y147960D01*
X136220Y148220D01*
G54D11*
G01X44800Y83400D02*
X30200D01*
G01D02*
Y78800D01*
G01Y61600D02*
Y57000D01*
G01D02*
X44800D01*
G01X48700Y134000D02*
Y118000D01*
G01D02*
X56200D01*
G01Y134000D02*
X48700D01*
G01X45500Y419000D02*
Y435000D01*
G01D02*
X38000D01*
G01D02*
Y419000D01*
G01D02*
X45500D01*
G01X61400Y64000D02*
Y56500D01*
G01D02*
X77400D01*
G01D02*
Y64000D01*
G01X77500Y73100D02*
X61500D01*
G01D02*
Y65600D01*
G01D02*
X77500D01*
G01D02*
Y73100D01*
G01X77400Y64000D02*
X61400D01*
G01X70900Y90400D02*
Y74400D01*
G01D02*
X78400D01*
G01D02*
Y90400D01*
G01X68700Y74100D02*
Y90100D01*
G01X61200D02*
Y74100D01*
G01D02*
X68700D01*
G01X100400Y114500D02*
X84400D01*
G01D02*
Y107000D01*
G01D02*
X100400D01*
G01X78400Y90400D02*
X70900D01*
G01X68700Y90100D02*
X61200D01*
G01X56200Y118000D02*
Y134000D01*
G01X82500Y124600D02*
X66500D01*
G01D02*
Y117100D01*
G01D02*
X82500D01*
G01D02*
Y124600D01*
G01X100400Y124700D02*
X84400D01*
G01D02*
Y117200D01*
G01D02*
X100400D01*
G01X63000Y192800D02*
X79000D01*
G01D02*
Y200300D01*
G01D02*
X63000D01*
G01D02*
Y192800D01*
G01X59400Y439500D02*
Y423500D01*
G01D02*
X66900D01*
G01D02*
Y439500D01*
G01D02*
X59400D01*
G01X74900Y481500D02*
Y474000D01*
G01D02*
X90900D01*
G01Y481500D02*
X74900D01*
G01X114000Y112100D02*
X130000D01*
G01X114000Y119600D02*
Y112100D01*
G01X100400Y107000D02*
Y114500D01*
G01X110800Y106600D02*
Y122600D01*
G01X103300D02*
Y106600D01*
G01D02*
X110800D01*
G01X130000Y119600D02*
X114000D01*
G01X110800Y122600D02*
X103300D01*
G01X100400Y117200D02*
Y124700D01*
G01X90900Y474000D02*
Y481500D01*
G01X130000Y112100D02*
Y119600D01*
G01X151600Y225600D02*
X144100D01*
G01D02*
Y209600D01*
G01D02*
X151600D01*
G01D02*
Y225600D01*
G54D12*
G01X-48800Y23340D02*
X-48170Y22810D01*
X-47460Y22500D01*
X-46840D01*
X-46210Y22810D01*
X-45740Y23340D01*
X-45500Y24080D01*
X-45660Y24810D01*
X-46050Y25440D01*
X-46760Y25860D01*
X-47700Y26070D01*
X-48250Y26490D01*
X-48480Y27220D01*
X-48320Y27960D01*
X-47930Y28480D01*
X-47390Y28800D01*
X-46840D01*
X-46290Y28590D01*
X-45820Y28060D01*
G01X-42500Y23340D02*
X-41870Y22810D01*
X-41160Y22500D01*
X-40540D01*
X-39910Y22810D01*
X-39440Y23340D01*
X-39200Y24080D01*
X-39360Y24810D01*
X-39750Y25440D01*
X-40460Y25860D01*
X-41400Y26070D01*
X-41950Y26490D01*
X-42180Y27220D01*
X-42020Y27960D01*
X-41630Y28480D01*
X-41090Y28800D01*
X-40540D01*
X-39990Y28590D01*
X-39520Y28060D01*
G01X-33920Y25860D02*
X-33610Y26170D01*
X-33380Y26700D01*
X-33220Y27440D01*
X-33380Y28060D01*
X-33690Y28480D01*
X-34240Y28800D01*
X-36350D01*
Y22500D01*
X-33770D01*
X-33220Y22920D01*
X-32900Y23550D01*
X-32750Y24290D01*
X-32900Y25020D01*
X-33380Y25650D01*
X-33920Y25860D01*
X-36350D01*
G01X9400Y73570D02*
X13910D01*
X14860Y73260D01*
X15490Y72630D01*
X15700Y71850D01*
X15490Y71070D01*
X14860Y70440D01*
X13910Y70130D01*
X9400D01*
G01X15700Y64610D02*
X9400D01*
X13910Y67510D01*
Y63590D01*
G01X63820Y33800D02*
Y40100D01*
X62260D01*
X61630Y39780D01*
X61160Y39360D01*
X60770Y38740D01*
X60450Y38000D01*
X60380Y36950D01*
X60450Y35900D01*
X60770Y35160D01*
X61160Y34530D01*
X61630Y34110D01*
X62260Y33800D01*
X63820D01*
G01X55800D02*
Y40100D01*
X56740Y38840D01*
G01Y33800D02*
X54860D01*
G01X58700Y48800D02*
X54950D01*
G01X59500Y84620D02*
X53200D01*
Y82660D01*
X53520Y82030D01*
X53940Y81640D01*
X54780Y81480D01*
X55620Y81640D01*
X56140Y82110D01*
X56460Y82660D01*
Y84620D01*
G01Y82660D02*
X59500Y81480D01*
G01X56880Y78240D02*
X56140Y77690D01*
X55720Y77220D01*
X55510Y76590D01*
X55720Y76040D01*
X56140Y75650D01*
X56770Y75340D01*
X57510Y75260D01*
X58140Y75340D01*
X58770Y75650D01*
X59290Y76120D01*
X59500Y76670D01*
X59290Y77300D01*
X58660Y77850D01*
X57710Y78160D01*
X56670Y78240D01*
X55300Y78080D01*
X54560Y77850D01*
X53830Y77460D01*
X53300Y76910D01*
X53200Y76360D01*
X53410Y75810D01*
X53940Y75420D01*
G01X46600Y142900D02*
Y162900D01*
G01X126600Y142900D02*
X46600D01*
G01X44170Y124270D02*
X44490Y123800D01*
X44700Y123260D01*
Y122630D01*
X44380Y121920D01*
X43860Y121380D01*
X43230Y120980D01*
X42180Y120670D01*
X41230Y120590D01*
X40290Y120750D01*
X39660Y120980D01*
X39030Y121450D01*
X38610Y122000D01*
X38400Y122550D01*
Y123100D01*
X38610Y123650D01*
X38920Y124120D01*
X39340Y124510D01*
G01X38400Y128690D02*
X39760Y128850D01*
X40920Y129090D01*
X41970Y129400D01*
X43120Y129790D01*
X44700Y130420D01*
Y127280D01*
G01X26880Y154140D02*
X27280Y154770D01*
X27740Y155190D01*
X28290Y155400D01*
X28920Y155190D01*
X29390Y154770D01*
X29860Y154140D01*
X30020Y153300D01*
Y149100D01*
G01X34750Y155400D02*
Y149100D01*
X33810Y150360D01*
G01Y155400D02*
X35690D01*
G01X46600Y162900D02*
X126600D01*
G01X31800Y432020D02*
X25500D01*
Y430060D01*
X25820Y429430D01*
X26240Y429040D01*
X27080Y428880D01*
X27920Y429040D01*
X28440Y429510D01*
X28760Y430060D01*
Y432020D01*
G01Y430060D02*
X31800Y428880D01*
G01Y424150D02*
X25500D01*
X26760Y425090D01*
G01X31800D02*
Y423210D01*
G01Y417850D02*
X25500D01*
X26760Y418790D01*
G01X31800D02*
Y416910D01*
G01X68700Y41100D02*
Y16100D01*
G01D02*
X133700D01*
G01Y41100D02*
X68700D01*
G01X83170Y57030D02*
X82700Y56710D01*
X82160Y56500D01*
X81530D01*
X80820Y56820D01*
X80280Y57340D01*
X79880Y57970D01*
X79570Y59020D01*
X79490Y59970D01*
X79650Y60910D01*
X79880Y61540D01*
X80350Y62170D01*
X80900Y62590D01*
X81450Y62800D01*
X82000D01*
X82550Y62590D01*
X83020Y62280D01*
X83410Y61860D01*
G01X86030D02*
X86500Y62380D01*
X87040Y62700D01*
X87750Y62800D01*
X88460Y62590D01*
X89000Y62170D01*
X89400Y61440D01*
X89470Y60600D01*
X89320Y59760D01*
X88920Y59230D01*
X88380Y58810D01*
X87830Y58710D01*
X87280Y58810D01*
X86580Y59230D01*
X86810Y56500D01*
X88920D01*
G01X84950Y48800D02*
X81200D01*
G01X58700Y53800D02*
X81200D01*
G01D02*
Y43800D01*
G01D02*
X58700D01*
G01D02*
Y53800D01*
G01X83270Y68630D02*
X82800Y68310D01*
X82260Y68100D01*
X81630D01*
X80920Y68420D01*
X80380Y68940D01*
X79980Y69570D01*
X79670Y70620D01*
X79590Y71570D01*
X79750Y72510D01*
X79980Y73140D01*
X80450Y73770D01*
X81000Y74190D01*
X81550Y74400D01*
X82100D01*
X82650Y74190D01*
X83120Y73880D01*
X83510Y73460D01*
G01X88790Y74400D02*
Y68100D01*
X85890Y72610D01*
X89810D01*
G01X81600Y77380D02*
X87900D01*
Y79340D01*
X87580Y79970D01*
X87160Y80360D01*
X86320Y80520D01*
X85480Y80360D01*
X84960Y79890D01*
X84640Y79340D01*
Y77380D01*
G01Y79340D02*
X81600Y80520D01*
G01X82540Y83530D02*
X82020Y84000D01*
X81700Y84540D01*
X81600Y85250D01*
X81810Y85960D01*
X82230Y86500D01*
X82960Y86900D01*
X83800Y86970D01*
X84640Y86820D01*
X85170Y86420D01*
X85590Y85880D01*
X85690Y85330D01*
X85590Y84780D01*
X85170Y84080D01*
X87900Y84310D01*
Y86420D01*
G01X70270Y107630D02*
X69800Y107310D01*
X69260Y107100D01*
X68630D01*
X67920Y107420D01*
X67380Y107940D01*
X66980Y108570D01*
X66670Y109620D01*
X66590Y110570D01*
X66750Y111510D01*
X66980Y112140D01*
X67450Y112770D01*
X68000Y113190D01*
X68550Y113400D01*
X69100D01*
X69650Y113190D01*
X70120Y112880D01*
X70510Y112460D01*
G01X73130Y112140D02*
X73600Y112880D01*
X74220Y113300D01*
X74930Y113400D01*
X75560Y113300D01*
X76180Y112770D01*
X76570Y112140D01*
X76650Y111510D01*
X76500Y110780D01*
X75950Y110250D01*
X75400Y110040D01*
X74690D01*
G01X75400D02*
X75870Y109730D01*
X76260Y109200D01*
X76420Y108570D01*
X76260Y107940D01*
X75870Y107420D01*
X75160Y107100D01*
X74460Y107200D01*
X73750Y107630D01*
G01X92020Y194000D02*
Y200300D01*
X90060D01*
X89430Y199980D01*
X89040Y199560D01*
X88880Y198720D01*
X89040Y197880D01*
X89510Y197360D01*
X90060Y197040D01*
X92020D01*
G01X90060D02*
X88880Y194000D01*
G01X84150D02*
Y200300D01*
X85090Y199040D01*
G01Y194000D02*
X83210D01*
G01X70100Y423980D02*
X76400D01*
Y425940D01*
X76080Y426570D01*
X75660Y426960D01*
X74820Y427120D01*
X73980Y426960D01*
X73460Y426490D01*
X73140Y425940D01*
Y423980D01*
G01Y425940D02*
X70100Y427120D01*
G01Y431850D02*
X76400D01*
X75140Y430910D01*
G01X70100D02*
Y432790D01*
G01X76400Y438150D02*
X76190Y437520D01*
X75660Y437050D01*
X75040Y436740D01*
X74190Y436500D01*
X73250Y436430D01*
X72300Y436500D01*
X71460Y436740D01*
X70830Y437050D01*
X70310Y437520D01*
X70100Y438150D01*
X70310Y438780D01*
X70830Y439250D01*
X71460Y439560D01*
X72300Y439800D01*
X73250Y439870D01*
X74190Y439800D01*
X75040Y439560D01*
X75660Y439250D01*
X76190Y438780D01*
X76400Y438150D01*
G01X86200Y13600D02*
Y3600D01*
G01D02*
X116200D01*
G01X130500Y44440D02*
X129870Y43910D01*
X129160Y43600D01*
X128540D01*
X127910Y43910D01*
X127440Y44440D01*
X127200Y45180D01*
X127360Y45910D01*
X127750Y46540D01*
X128460Y46960D01*
X129400Y47170D01*
X129950Y47590D01*
X130180Y48320D01*
X130020Y49060D01*
X129630Y49580D01*
X129090Y49900D01*
X128540D01*
X127990Y49690D01*
X127520Y49160D01*
G01X124900Y49900D02*
X123800Y43600D01*
X122550Y49900D01*
X121300Y43600D01*
X120200Y49900D01*
G01X117580Y44330D02*
X117030Y43810D01*
X116410Y43600D01*
X115780Y43810D01*
X115230Y44440D01*
X114840Y45390D01*
X114680Y46330D01*
Y47480D01*
X114840Y48430D01*
X115230Y49270D01*
X115700Y49690D01*
X116250Y49900D01*
X116880Y49690D01*
X117350Y49270D01*
X117660Y48640D01*
X117820Y47800D01*
X117660Y47070D01*
X117270Y46330D01*
X116800Y45910D01*
X116250Y45800D01*
X115620Y46010D01*
X115150Y46540D01*
X114680Y47480D01*
G01X109100Y94620D02*
X102800D01*
Y92660D01*
X103120Y92030D01*
X103540Y91640D01*
X104380Y91480D01*
X105220Y91640D01*
X105740Y92110D01*
X106060Y92660D01*
Y94620D01*
G01Y92660D02*
X109100Y91480D01*
G01X103850Y88240D02*
X103220Y87770D01*
X102900Y87220D01*
X102800Y86590D01*
X103010Y85810D01*
X103540Y85260D01*
X104160Y85100D01*
X104800Y85180D01*
X105320Y85500D01*
X106370Y87060D01*
X107110Y87770D01*
X108160Y88240D01*
X109100Y88400D01*
Y85100D01*
G01X89380Y95800D02*
Y89500D01*
X91340D01*
X91970Y89820D01*
X92360Y90240D01*
X92520Y91080D01*
X92360Y91920D01*
X91890Y92440D01*
X91340Y92760D01*
X89380D01*
G01X91340D02*
X92520Y95800D01*
G01X98190D02*
Y89500D01*
X95290Y94010D01*
X99210D01*
G01X87880Y141000D02*
Y134700D01*
X89840D01*
X90470Y135020D01*
X90860Y135440D01*
X91020Y136280D01*
X90860Y137120D01*
X90390Y137640D01*
X89840Y137960D01*
X87880D01*
G01X89840D02*
X91020Y141000D01*
G01X94030Y139740D02*
X94500Y140480D01*
X95120Y140900D01*
X95830Y141000D01*
X96460Y140900D01*
X97080Y140370D01*
X97470Y139740D01*
X97550Y139110D01*
X97400Y138380D01*
X96850Y137850D01*
X96300Y137640D01*
X95590D01*
G01X96300D02*
X96770Y137330D01*
X97160Y136800D01*
X97320Y136170D01*
X97160Y135540D01*
X96770Y135020D01*
X96060Y134700D01*
X95360Y134800D01*
X94650Y135230D01*
G01X96670Y474530D02*
X96200Y474210D01*
X95660Y474000D01*
X95030D01*
X94320Y474320D01*
X93780Y474840D01*
X93380Y475470D01*
X93070Y476520D01*
X92990Y477470D01*
X93150Y478410D01*
X93380Y479040D01*
X93850Y479670D01*
X94400Y480090D01*
X94950Y480300D01*
X95500D01*
X96050Y480090D01*
X96520Y479780D01*
X96910Y479360D01*
G01X99760Y477680D02*
X100310Y476940D01*
X100780Y476520D01*
X101410Y476310D01*
X101960Y476520D01*
X102350Y476940D01*
X102660Y477570D01*
X102740Y478310D01*
X102660Y478940D01*
X102350Y479570D01*
X101880Y480090D01*
X101330Y480300D01*
X100700Y480090D01*
X100150Y479460D01*
X99840Y478510D01*
X99760Y477470D01*
X99920Y476100D01*
X100150Y475360D01*
X100540Y474630D01*
X101090Y474100D01*
X101640Y474000D01*
X102190Y474210D01*
X102580Y474740D01*
G01X116200Y3600D02*
Y13600D01*
G01X133700Y16100D02*
Y41100D01*
G01X139730Y119070D02*
X140200Y119390D01*
X140740Y119600D01*
X141370D01*
X142080Y119280D01*
X142620Y118760D01*
X143020Y118130D01*
X143330Y117080D01*
X143410Y116130D01*
X143250Y115190D01*
X143020Y114560D01*
X142550Y113930D01*
X142000Y113510D01*
X141450Y113300D01*
X140900D01*
X140350Y113510D01*
X139880Y113820D01*
X139490Y114240D01*
G01X136640Y118550D02*
X136170Y119180D01*
X135620Y119500D01*
X134990Y119600D01*
X134210Y119390D01*
X133660Y118860D01*
X133500Y118240D01*
X133580Y117600D01*
X133900Y117080D01*
X135460Y116030D01*
X136170Y115290D01*
X136640Y114240D01*
X136800Y113300D01*
X133500D01*
G01X126600Y162900D02*
Y142900D01*
G01X154630Y219330D02*
X154310Y219800D01*
X154100Y220340D01*
Y220970D01*
X154420Y221680D01*
X154940Y222220D01*
X155570Y222620D01*
X156620Y222930D01*
X157570Y223010D01*
X158510Y222850D01*
X159140Y222620D01*
X159770Y222150D01*
X160190Y221600D01*
X160400Y221050D01*
Y220500D01*
X160190Y219950D01*
X159880Y219480D01*
X159460Y219090D01*
G01X160400Y214750D02*
X154100D01*
X155360Y215690D01*
G01X160400D02*
Y213810D01*
M02*
