G04 ================== begin FILE IDENTIFICATION RECORD ==================*
G04 Layout Name:  ee174tutorial.brd*
G04 Film Name:    handset_v1_MECH*
G04 File Format:  Gerber RS274X*
G04 File Origin:  Cadence Allegro 16.6-2015-S059*
G04 Origin Date:  Fri Jan 04 11:53:32 2019*
G04 *
G04 Layer:  MANUFACTURING/NCLEGEND-1-2*
G04 Layer:  BOARD GEOMETRY/OUTLINE*
G04 Layer:  BOARD GEOMETRY/CUT_MARKS*
G04 *
G04 Offset:    (0.0 0.0)*
G04 Mirror:    No*
G04 Mode:      Positive*
G04 Rotation:  0*
G04 FullContactRelief:  No*
G04 UndefLineWidth:     0.0*
G04 ================== end FILE IDENTIFICATION RECORD ====================*
%FSLAX25Y25*MOIN*%
%IR0*IPPOS*OFA0.00000B0.00000*MIA0B0*SFA1.00000B1.00000*%
%AMMACRO11*
1,1,0.0,.01,0.0*
20,1,0.0,.01,0.0,-.01,0.0,0.0*
1,1,0.0,-.01,0.0*
1,1,0.0,0.0,.01*
20,1,0.0,0.0,.01,0.0,-.01,0.0*
1,1,0.0,0.0,-.01*
1,1,0.0,.005,0.0*
20,1,0.0,.005,0.0,-.005,0.0,0.0*
1,1,0.0,-.005,0.0*
1,1,0.0,0.0,.005*
20,1,0.0,0.0,.005,0.0,-.005,0.0*
1,1,0.0,0.0,-.005*
%
%ADD11MACRO11*%
%AMMACRO19*
1,1,0.0,.04,0.0*
20,1,0.0,.04,0.0,-.04,0.0,0.0*
1,1,0.0,-.04,0.0*
1,1,0.0,0.0,.04*
20,1,0.0,0.0,.04,0.0,-.04,0.0*
1,1,0.0,0.0,-.04*
1,1,0.0,.02,0.0*
20,1,0.0,.02,0.0,-.02,0.0,0.0*
1,1,0.0,-.02,0.0*
1,1,0.0,0.0,.02*
20,1,0.0,0.0,.02,0.0,-.02,0.0*
1,1,0.0,0.0,-.02*
%
%ADD19MACRO19*%
%AMMACRO12*
1,1,0.0,.021,0.0*
20,1,0.0,.021,0.0,.020681,-.003647,0.0*
1,1,0.0,.020681,-.003647*
20,1,0.0,.020681,-.003647,.019734,-.007182,0.0*
1,1,0.0,.019734,-.007182*
20,1,0.0,.019734,-.007182,.018187,-.0105,0.0*
1,1,0.0,.018187,-.0105*
20,1,0.0,.018187,-.0105,.016087,-.013499,0.0*
1,1,0.0,.016087,-.013499*
20,1,0.0,.016087,-.013499,.013499,-.016087,0.0*
1,1,0.0,.013499,-.016087*
20,1,0.0,.013499,-.016087,.0105,-.018187,0.0*
1,1,0.0,.0105,-.018187*
20,1,0.0,.0105,-.018187,.007182,-.019734,0.0*
1,1,0.0,.007182,-.019734*
20,1,0.0,.007182,-.019734,.003647,-.020681,0.0*
1,1,0.0,.003647,-.020681*
20,1,0.0,.003647,-.020681,0.0,-.021,0.0*
1,1,0.0,0.0,-.021*
20,1,0.0,0.0,-.021,-.003647,-.020681,0.0*
1,1,0.0,-.003647,-.020681*
20,1,0.0,-.003647,-.020681,-.007182,-.019734,0.0*
1,1,0.0,-.007182,-.019734*
20,1,0.0,-.007182,-.019734,-.0105,-.018187,0.0*
1,1,0.0,-.0105,-.018187*
20,1,0.0,-.0105,-.018187,-.013499,-.016087,0.0*
1,1,0.0,-.013499,-.016087*
20,1,0.0,-.013499,-.016087,-.016087,-.013499,0.0*
1,1,0.0,-.016087,-.013499*
20,1,0.0,-.016087,-.013499,-.018187,-.0105,0.0*
1,1,0.0,-.018187,-.0105*
20,1,0.0,-.018187,-.0105,-.019734,-.007182,0.0*
1,1,0.0,-.019734,-.007182*
20,1,0.0,-.019734,-.007182,-.020681,-.003647,0.0*
1,1,0.0,-.020681,-.003647*
20,1,0.0,-.020681,-.003647,-.021,0.0,0.0*
1,1,0.0,-.021,0.0*
20,1,0.0,-.021,0.0,-.020681,.003647,0.0*
1,1,0.0,-.020681,.003647*
20,1,0.0,-.020681,.003647,-.019734,.007182,0.0*
1,1,0.0,-.019734,.007182*
20,1,0.0,-.019734,.007182,-.018187,.0105,0.0*
1,1,0.0,-.018187,.0105*
20,1,0.0,-.018187,.0105,-.016087,.013499,0.0*
1,1,0.0,-.016087,.013499*
20,1,0.0,-.016087,.013499,-.013499,.016087,0.0*
1,1,0.0,-.013499,.016087*
20,1,0.0,-.013499,.016087,-.0105,.018187,0.0*
1,1,0.0,-.0105,.018187*
20,1,0.0,-.0105,.018187,-.007182,.019734,0.0*
1,1,0.0,-.007182,.019734*
20,1,0.0,-.007182,.019734,-.003647,.020681,0.0*
1,1,0.0,-.003647,.020681*
20,1,0.0,-.003647,.020681,0.0,.021,0.0*
1,1,0.0,0.0,.021*
20,1,0.0,0.0,.021,.003647,.020681,0.0*
1,1,0.0,.003647,.020681*
20,1,0.0,.003647,.020681,.007182,.019734,0.0*
1,1,0.0,.007182,.019734*
20,1,0.0,.007182,.019734,.0105,.018187,0.0*
1,1,0.0,.0105,.018187*
20,1,0.0,.0105,.018187,.013499,.016087,0.0*
1,1,0.0,.013499,.016087*
20,1,0.0,.013499,.016087,.016087,.013499,0.0*
1,1,0.0,.016087,.013499*
20,1,0.0,.016087,.013499,.018187,.0105,0.0*
1,1,0.0,.018187,.0105*
20,1,0.0,.018187,.0105,.019734,.007182,0.0*
1,1,0.0,.019734,.007182*
20,1,0.0,.019734,.007182,.020681,.003647,0.0*
1,1,0.0,.020681,.003647*
20,1,0.0,.020681,.003647,.021,0.0,0.0*
1,1,0.0,.021,0.0*
1,1,0.0,.0077,.0087*
20,1,0.0,.0077,.0087,.0056,.0098,0.0*
1,1,0.0,.0056,.0098*
20,1,0.0,.0056,.0098,.0032,.0105,0.0*
1,1,0.0,.0032,.0105*
20,1,0.0,.0032,.0105,.0004,.0105,0.0*
1,1,0.0,.0004,.0105*
20,1,0.0,.0004,.0105,-.0028,.0094,0.0*
1,1,0.0,-.0028,.0094*
20,1,0.0,-.0028,.0094,-.0052,.0077,0.0*
1,1,0.0,-.0052,.0077*
20,1,0.0,-.0052,.0077,-.007,.0056,0.0*
1,1,0.0,-.007,.0056*
20,1,0.0,-.007,.0056,-.0084,.0021,0.0*
1,1,0.0,-.0084,.0021*
20,1,0.0,-.0084,.0021,-.0088,-.0011,0.0*
1,1,0.0,-.0088,-.0011*
20,1,0.0,-.0088,-.0011,-.008,-.0042,0.0*
1,1,0.0,-.008,-.0042*
20,1,0.0,-.008,-.0042,-.007,-.0063,0.0*
1,1,0.0,-.007,-.0063*
20,1,0.0,-.007,-.0063,-.0049,-.0084,0.0*
1,1,0.0,-.0049,-.0084*
20,1,0.0,-.0049,-.0084,-.0024,-.0098,0.0*
1,1,0.0,-.0024,-.0098*
20,1,0.0,-.0024,-.0098,0.0,-.0105,0.0*
1,1,0.0,0.0,-.0105*
20,1,0.0,0.0,-.0105,.0024,-.0105,0.0*
1,1,0.0,.0024,-.0105*
20,1,0.0,.0024,-.0105,.0049,-.0098,0.0*
1,1,0.0,.0049,-.0098*
20,1,0.0,.0049,-.0098,.007,-.0088,0.0*
1,1,0.0,.007,-.0088*
20,1,0.0,.007,-.0088,.0088,-.0074,0.0*
1,1,0.0,.0088,-.0074*
%
%ADD12MACRO12*%
%AMMACRO20*
1,1,0.0,.04,0.0*
20,1,0.0,.04,0.0,.039392,-.006946,0.0*
1,1,0.0,.039392,-.006946*
20,1,0.0,.039392,-.006946,.037588,-.013681,0.0*
1,1,0.0,.037588,-.013681*
20,1,0.0,.037588,-.013681,.034641,-.02,0.0*
1,1,0.0,.034641,-.02*
20,1,0.0,.034641,-.02,.030642,-.025712,0.0*
1,1,0.0,.030642,-.025712*
20,1,0.0,.030642,-.025712,.025712,-.030642,0.0*
1,1,0.0,.025712,-.030642*
20,1,0.0,.025712,-.030642,.02,-.034641,0.0*
1,1,0.0,.02,-.034641*
20,1,0.0,.02,-.034641,.013681,-.037588,0.0*
1,1,0.0,.013681,-.037588*
20,1,0.0,.013681,-.037588,.006946,-.039392,0.0*
1,1,0.0,.006946,-.039392*
20,1,0.0,.006946,-.039392,0.0,-.04,0.0*
1,1,0.0,0.0,-.04*
20,1,0.0,0.0,-.04,-.006946,-.039392,0.0*
1,1,0.0,-.006946,-.039392*
20,1,0.0,-.006946,-.039392,-.013681,-.037588,0.0*
1,1,0.0,-.013681,-.037588*
20,1,0.0,-.013681,-.037588,-.02,-.034641,0.0*
1,1,0.0,-.02,-.034641*
20,1,0.0,-.02,-.034641,-.025712,-.030642,0.0*
1,1,0.0,-.025712,-.030642*
20,1,0.0,-.025712,-.030642,-.030642,-.025712,0.0*
1,1,0.0,-.030642,-.025712*
20,1,0.0,-.030642,-.025712,-.034641,-.02,0.0*
1,1,0.0,-.034641,-.02*
20,1,0.0,-.034641,-.02,-.037588,-.013681,0.0*
1,1,0.0,-.037588,-.013681*
20,1,0.0,-.037588,-.013681,-.039392,-.006946,0.0*
1,1,0.0,-.039392,-.006946*
20,1,0.0,-.039392,-.006946,-.04,0.0,0.0*
1,1,0.0,-.04,0.0*
20,1,0.0,-.04,0.0,-.039392,.006946,0.0*
1,1,0.0,-.039392,.006946*
20,1,0.0,-.039392,.006946,-.037588,.013681,0.0*
1,1,0.0,-.037588,.013681*
20,1,0.0,-.037588,.013681,-.034641,.02,0.0*
1,1,0.0,-.034641,.02*
20,1,0.0,-.034641,.02,-.030642,.025712,0.0*
1,1,0.0,-.030642,.025712*
20,1,0.0,-.030642,.025712,-.025712,.030642,0.0*
1,1,0.0,-.025712,.030642*
20,1,0.0,-.025712,.030642,-.02,.034641,0.0*
1,1,0.0,-.02,.034641*
20,1,0.0,-.02,.034641,-.013681,.037588,0.0*
1,1,0.0,-.013681,.037588*
20,1,0.0,-.013681,.037588,-.006946,.039392,0.0*
1,1,0.0,-.006946,.039392*
20,1,0.0,-.006946,.039392,0.0,.04,0.0*
1,1,0.0,0.0,.04*
20,1,0.0,0.0,.04,.006946,.039392,0.0*
1,1,0.0,.006946,.039392*
20,1,0.0,.006946,.039392,.013681,.037588,0.0*
1,1,0.0,.013681,.037588*
20,1,0.0,.013681,.037588,.02,.034641,0.0*
1,1,0.0,.02,.034641*
20,1,0.0,.02,.034641,.025712,.030642,0.0*
1,1,0.0,.025712,.030642*
20,1,0.0,.025712,.030642,.030642,.025712,0.0*
1,1,0.0,.030642,.025712*
20,1,0.0,.030642,.025712,.034641,.02,0.0*
1,1,0.0,.034641,.02*
20,1,0.0,.034641,.02,.037588,.013681,0.0*
1,1,0.0,.037588,.013681*
20,1,0.0,.037588,.013681,.039392,.006946,0.0*
1,1,0.0,.039392,.006946*
20,1,0.0,.039392,.006946,.04,0.0,0.0*
1,1,0.0,.04,0.0*
1,1,0.0,-.0167,-.02*
20,1,0.0,-.0167,-.02,0.0,.02,0.0*
1,1,0.0,0.0,.02*
20,1,0.0,0.0,.02,.0167,-.02,0.0*
1,1,0.0,.0167,-.02*
1,1,0.0,.0107,-.006*
20,1,0.0,.0107,-.006,-.0107,-.006,0.0*
1,1,0.0,-.0107,-.006*
%
%ADD20MACRO20*%
%AMMACRO13*
1,1,0.0,.0175,0.0*
20,1,0.0,.0175,0.0,.017234,-.003039,0.0*
1,1,0.0,.017234,-.003039*
20,1,0.0,.017234,-.003039,.016445,-.005985,0.0*
1,1,0.0,.016445,-.005985*
20,1,0.0,.016445,-.005985,.015155,-.00875,0.0*
1,1,0.0,.015155,-.00875*
20,1,0.0,.015155,-.00875,.013406,-.011249,0.0*
1,1,0.0,.013406,-.011249*
20,1,0.0,.013406,-.011249,.011249,-.013406,0.0*
1,1,0.0,.011249,-.013406*
20,1,0.0,.011249,-.013406,.00875,-.015155,0.0*
1,1,0.0,.00875,-.015155*
20,1,0.0,.00875,-.015155,.005985,-.016445,0.0*
1,1,0.0,.005985,-.016445*
20,1,0.0,.005985,-.016445,.003039,-.017234,0.0*
1,1,0.0,.003039,-.017234*
20,1,0.0,.003039,-.017234,0.0,-.0175,0.0*
1,1,0.0,0.0,-.0175*
20,1,0.0,0.0,-.0175,-.003039,-.017234,0.0*
1,1,0.0,-.003039,-.017234*
20,1,0.0,-.003039,-.017234,-.005985,-.016445,0.0*
1,1,0.0,-.005985,-.016445*
20,1,0.0,-.005985,-.016445,-.00875,-.015155,0.0*
1,1,0.0,-.00875,-.015155*
20,1,0.0,-.00875,-.015155,-.011249,-.013406,0.0*
1,1,0.0,-.011249,-.013406*
20,1,0.0,-.011249,-.013406,-.013406,-.011249,0.0*
1,1,0.0,-.013406,-.011249*
20,1,0.0,-.013406,-.011249,-.015155,-.00875,0.0*
1,1,0.0,-.015155,-.00875*
20,1,0.0,-.015155,-.00875,-.016445,-.005985,0.0*
1,1,0.0,-.016445,-.005985*
20,1,0.0,-.016445,-.005985,-.017234,-.003039,0.0*
1,1,0.0,-.017234,-.003039*
20,1,0.0,-.017234,-.003039,-.0175,0.0,0.0*
1,1,0.0,-.0175,0.0*
20,1,0.0,-.0175,0.0,-.017234,.003039,0.0*
1,1,0.0,-.017234,.003039*
20,1,0.0,-.017234,.003039,-.016445,.005985,0.0*
1,1,0.0,-.016445,.005985*
20,1,0.0,-.016445,.005985,-.015155,.00875,0.0*
1,1,0.0,-.015155,.00875*
20,1,0.0,-.015155,.00875,-.013406,.011249,0.0*
1,1,0.0,-.013406,.011249*
20,1,0.0,-.013406,.011249,-.011249,.013406,0.0*
1,1,0.0,-.011249,.013406*
20,1,0.0,-.011249,.013406,-.00875,.015155,0.0*
1,1,0.0,-.00875,.015155*
20,1,0.0,-.00875,.015155,-.005985,.016445,0.0*
1,1,0.0,-.005985,.016445*
20,1,0.0,-.005985,.016445,-.003039,.017234,0.0*
1,1,0.0,-.003039,.017234*
20,1,0.0,-.003039,.017234,0.0,.0175,0.0*
1,1,0.0,0.0,.0175*
20,1,0.0,0.0,.0175,.003039,.017234,0.0*
1,1,0.0,.003039,.017234*
20,1,0.0,.003039,.017234,.005985,.016445,0.0*
1,1,0.0,.005985,.016445*
20,1,0.0,.005985,.016445,.00875,.015155,0.0*
1,1,0.0,.00875,.015155*
20,1,0.0,.00875,.015155,.011249,.013406,0.0*
1,1,0.0,.011249,.013406*
20,1,0.0,.011249,.013406,.013406,.011249,0.0*
1,1,0.0,.013406,.011249*
20,1,0.0,.013406,.011249,.015155,.00875,0.0*
1,1,0.0,.015155,.00875*
20,1,0.0,.015155,.00875,.016445,.005985,0.0*
1,1,0.0,.016445,.005985*
20,1,0.0,.016445,.005985,.017234,.003039,0.0*
1,1,0.0,.017234,.003039*
20,1,0.0,.017234,.003039,.0175,0.0,0.0*
1,1,0.0,.0175,0.0*
1,1,0.0,-.0072,-.0087*
20,1,0.0,-.0072,-.0087,0.0,.0088,0.0*
1,1,0.0,0.0,.0088*
20,1,0.0,0.0,.0088,.0073,-.0087,0.0*
1,1,0.0,.0073,-.0087*
1,1,0.0,.0047,-.0026*
20,1,0.0,.0047,-.0026,-.0046,-.0026,0.0*
1,1,0.0,-.0046,-.0026*
%
%ADD13MACRO13*%
%AMMACRO21*
1,1,0.0,.04,0.0*
20,1,0.0,.04,0.0,.039392,-.006946,0.0*
1,1,0.0,.039392,-.006946*
20,1,0.0,.039392,-.006946,.037588,-.013681,0.0*
1,1,0.0,.037588,-.013681*
20,1,0.0,.037588,-.013681,.034641,-.02,0.0*
1,1,0.0,.034641,-.02*
20,1,0.0,.034641,-.02,.030642,-.025712,0.0*
1,1,0.0,.030642,-.025712*
20,1,0.0,.030642,-.025712,.025712,-.030642,0.0*
1,1,0.0,.025712,-.030642*
20,1,0.0,.025712,-.030642,.02,-.034641,0.0*
1,1,0.0,.02,-.034641*
20,1,0.0,.02,-.034641,.013681,-.037588,0.0*
1,1,0.0,.013681,-.037588*
20,1,0.0,.013681,-.037588,.006946,-.039392,0.0*
1,1,0.0,.006946,-.039392*
20,1,0.0,.006946,-.039392,0.0,-.04,0.0*
1,1,0.0,0.0,-.04*
20,1,0.0,0.0,-.04,-.006946,-.039392,0.0*
1,1,0.0,-.006946,-.039392*
20,1,0.0,-.006946,-.039392,-.013681,-.037588,0.0*
1,1,0.0,-.013681,-.037588*
20,1,0.0,-.013681,-.037588,-.02,-.034641,0.0*
1,1,0.0,-.02,-.034641*
20,1,0.0,-.02,-.034641,-.025712,-.030642,0.0*
1,1,0.0,-.025712,-.030642*
20,1,0.0,-.025712,-.030642,-.030642,-.025712,0.0*
1,1,0.0,-.030642,-.025712*
20,1,0.0,-.030642,-.025712,-.034641,-.02,0.0*
1,1,0.0,-.034641,-.02*
20,1,0.0,-.034641,-.02,-.037588,-.013681,0.0*
1,1,0.0,-.037588,-.013681*
20,1,0.0,-.037588,-.013681,-.039392,-.006946,0.0*
1,1,0.0,-.039392,-.006946*
20,1,0.0,-.039392,-.006946,-.04,0.0,0.0*
1,1,0.0,-.04,0.0*
20,1,0.0,-.04,0.0,-.039392,.006946,0.0*
1,1,0.0,-.039392,.006946*
20,1,0.0,-.039392,.006946,-.037588,.013681,0.0*
1,1,0.0,-.037588,.013681*
20,1,0.0,-.037588,.013681,-.034641,.02,0.0*
1,1,0.0,-.034641,.02*
20,1,0.0,-.034641,.02,-.030642,.025712,0.0*
1,1,0.0,-.030642,.025712*
20,1,0.0,-.030642,.025712,-.025712,.030642,0.0*
1,1,0.0,-.025712,.030642*
20,1,0.0,-.025712,.030642,-.02,.034641,0.0*
1,1,0.0,-.02,.034641*
20,1,0.0,-.02,.034641,-.013681,.037588,0.0*
1,1,0.0,-.013681,.037588*
20,1,0.0,-.013681,.037588,-.006946,.039392,0.0*
1,1,0.0,-.006946,.039392*
20,1,0.0,-.006946,.039392,0.0,.04,0.0*
1,1,0.0,0.0,.04*
20,1,0.0,0.0,.04,.006946,.039392,0.0*
1,1,0.0,.006946,.039392*
20,1,0.0,.006946,.039392,.013681,.037588,0.0*
1,1,0.0,.013681,.037588*
20,1,0.0,.013681,.037588,.02,.034641,0.0*
1,1,0.0,.02,.034641*
20,1,0.0,.02,.034641,.025712,.030642,0.0*
1,1,0.0,.025712,.030642*
20,1,0.0,.025712,.030642,.030642,.025712,0.0*
1,1,0.0,.030642,.025712*
20,1,0.0,.030642,.025712,.034641,.02,0.0*
1,1,0.0,.034641,.02*
20,1,0.0,.034641,.02,.037588,.013681,0.0*
1,1,0.0,.037588,.013681*
20,1,0.0,.037588,.013681,.039392,.006946,0.0*
1,1,0.0,.039392,.006946*
20,1,0.0,.039392,.006946,.04,0.0,0.0*
1,1,0.0,.04,0.0*
1,1,0.0,.0053,.0013*
20,1,0.0,.0053,.0013,.008,.0033,0.0*
1,1,0.0,.008,.0033*
20,1,0.0,.008,.0033,.01,.0067,0.0*
1,1,0.0,.01,.0067*
20,1,0.0,.01,.0067,.0113,.0113,0.0*
1,1,0.0,.0113,.0113*
20,1,0.0,.0113,.0113,.01,.0153,0.0*
1,1,0.0,.01,.0153*
20,1,0.0,.01,.0153,.0073,.018,0.0*
1,1,0.0,.0073,.018*
20,1,0.0,.0073,.018,.0027,.02,0.0*
1,1,0.0,.0027,.02*
20,1,0.0,.0027,.02,-.0153,.02,0.0*
1,1,0.0,-.0153,.02*
20,1,0.0,-.0153,.02,-.0153,-.02,0.0*
1,1,0.0,-.0153,-.02*
20,1,0.0,-.0153,-.02,.0067,-.02,0.0*
1,1,0.0,.0067,-.02*
20,1,0.0,.0067,-.02,.0113,-.0173,0.0*
1,1,0.0,.0113,-.0173*
20,1,0.0,.0113,-.0173,.014,-.0133,0.0*
1,1,0.0,.014,-.0133*
20,1,0.0,.014,-.0133,.0153,-.0087,0.0*
1,1,0.0,.0153,-.0087*
20,1,0.0,.0153,-.0087,.014,-.004,0.0*
1,1,0.0,.014,-.004*
20,1,0.0,.014,-.004,.01,0.0,0.0*
1,1,0.0,.01,0.0*
20,1,0.0,.01,0.0,.0053,.0013,0.0*
1,1,0.0,.0053,.0013*
20,1,0.0,.0053,.0013,-.0153,.0013,0.0*
1,1,0.0,-.0153,.0013*
%
%ADD21MACRO21*%
%AMMACRO18*
1,1,0.0,.0267,-.04*
20,1,0.0,.0267,-.04,-.0267,-.04,0.0*
1,1,0.0,-.0267,-.04*
20,1,0.0,-.0267,-.04,-.0267,.04,0.0*
1,1,0.0,-.0267,.04*
20,1,0.0,-.0267,.04,.0267,.04,0.0*
1,1,0.0,.0267,.04*
1,1,0.0,.0053,.0013*
20,1,0.0,.0053,.0013,-.0267,.0013,0.0*
1,1,0.0,-.0267,.0013*
%
%ADD18MACRO18*%
%AMMACRO16*
1,1,0.0,.04,0.0*
20,1,0.0,.04,0.0,.039392,-.006946,0.0*
1,1,0.0,.039392,-.006946*
20,1,0.0,.039392,-.006946,.037588,-.013681,0.0*
1,1,0.0,.037588,-.013681*
20,1,0.0,.037588,-.013681,.034641,-.02,0.0*
1,1,0.0,.034641,-.02*
20,1,0.0,.034641,-.02,.030642,-.025712,0.0*
1,1,0.0,.030642,-.025712*
20,1,0.0,.030642,-.025712,.025712,-.030642,0.0*
1,1,0.0,.025712,-.030642*
20,1,0.0,.025712,-.030642,.02,-.034641,0.0*
1,1,0.0,.02,-.034641*
20,1,0.0,.02,-.034641,.013681,-.037588,0.0*
1,1,0.0,.013681,-.037588*
20,1,0.0,.013681,-.037588,.006946,-.039392,0.0*
1,1,0.0,.006946,-.039392*
20,1,0.0,.006946,-.039392,0.0,-.04,0.0*
1,1,0.0,0.0,-.04*
20,1,0.0,0.0,-.04,-.006946,-.039392,0.0*
1,1,0.0,-.006946,-.039392*
20,1,0.0,-.006946,-.039392,-.013681,-.037588,0.0*
1,1,0.0,-.013681,-.037588*
20,1,0.0,-.013681,-.037588,-.02,-.034641,0.0*
1,1,0.0,-.02,-.034641*
20,1,0.0,-.02,-.034641,-.025712,-.030642,0.0*
1,1,0.0,-.025712,-.030642*
20,1,0.0,-.025712,-.030642,-.030642,-.025712,0.0*
1,1,0.0,-.030642,-.025712*
20,1,0.0,-.030642,-.025712,-.034641,-.02,0.0*
1,1,0.0,-.034641,-.02*
20,1,0.0,-.034641,-.02,-.037588,-.013681,0.0*
1,1,0.0,-.037588,-.013681*
20,1,0.0,-.037588,-.013681,-.039392,-.006946,0.0*
1,1,0.0,-.039392,-.006946*
20,1,0.0,-.039392,-.006946,-.04,0.0,0.0*
1,1,0.0,-.04,0.0*
20,1,0.0,-.04,0.0,-.039392,.006946,0.0*
1,1,0.0,-.039392,.006946*
20,1,0.0,-.039392,.006946,-.037588,.013681,0.0*
1,1,0.0,-.037588,.013681*
20,1,0.0,-.037588,.013681,-.034641,.02,0.0*
1,1,0.0,-.034641,.02*
20,1,0.0,-.034641,.02,-.030642,.025712,0.0*
1,1,0.0,-.030642,.025712*
20,1,0.0,-.030642,.025712,-.025712,.030642,0.0*
1,1,0.0,-.025712,.030642*
20,1,0.0,-.025712,.030642,-.02,.034641,0.0*
1,1,0.0,-.02,.034641*
20,1,0.0,-.02,.034641,-.013681,.037588,0.0*
1,1,0.0,-.013681,.037588*
20,1,0.0,-.013681,.037588,-.006946,.039392,0.0*
1,1,0.0,-.006946,.039392*
20,1,0.0,-.006946,.039392,0.0,.04,0.0*
1,1,0.0,0.0,.04*
20,1,0.0,0.0,.04,.006946,.039392,0.0*
1,1,0.0,.006946,.039392*
20,1,0.0,.006946,.039392,.013681,.037588,0.0*
1,1,0.0,.013681,.037588*
20,1,0.0,.013681,.037588,.02,.034641,0.0*
1,1,0.0,.02,.034641*
20,1,0.0,.02,.034641,.025712,.030642,0.0*
1,1,0.0,.025712,.030642*
20,1,0.0,.025712,.030642,.030642,.025712,0.0*
1,1,0.0,.030642,.025712*
20,1,0.0,.030642,.025712,.034641,.02,0.0*
1,1,0.0,.034641,.02*
20,1,0.0,.034641,.02,.037588,.013681,0.0*
1,1,0.0,.037588,.013681*
20,1,0.0,.037588,.013681,.039392,.006946,0.0*
1,1,0.0,.039392,.006946*
20,1,0.0,.039392,.006946,.04,0.0,0.0*
1,1,0.0,.04,0.0*
1,1,0.0,.0147,.0167*
20,1,0.0,.0147,.0167,.0107,.0187,0.0*
1,1,0.0,.0107,.0187*
20,1,0.0,.0107,.0187,.006,.02,0.0*
1,1,0.0,.006,.02*
20,1,0.0,.006,.02,.0007,.02,0.0*
1,1,0.0,.0007,.02*
20,1,0.0,.0007,.02,-.0053,.018,0.0*
1,1,0.0,-.0053,.018*
20,1,0.0,-.0053,.018,-.01,.0147,0.0*
1,1,0.0,-.01,.0147*
20,1,0.0,-.01,.0147,-.0133,.0107,0.0*
1,1,0.0,-.0133,.0107*
20,1,0.0,-.0133,.0107,-.016,.004,0.0*
1,1,0.0,-.016,.004*
20,1,0.0,-.016,.004,-.0167,-.002,0.0*
1,1,0.0,-.0167,-.002*
20,1,0.0,-.0167,-.002,-.0153,-.008,0.0*
1,1,0.0,-.0153,-.008*
20,1,0.0,-.0153,-.008,-.0133,-.012,0.0*
1,1,0.0,-.0133,-.012*
20,1,0.0,-.0133,-.012,-.0093,-.016,0.0*
1,1,0.0,-.0093,-.016*
20,1,0.0,-.0093,-.016,-.0047,-.0187,0.0*
1,1,0.0,-.0047,-.0187*
20,1,0.0,-.0047,-.0187,0.0,-.02,0.0*
1,1,0.0,0.0,-.02*
20,1,0.0,0.0,-.02,.0047,-.02,0.0*
1,1,0.0,.0047,-.02*
20,1,0.0,.0047,-.02,.0093,-.0187,0.0*
1,1,0.0,.0093,-.0187*
20,1,0.0,.0093,-.0187,.0133,-.0167,0.0*
1,1,0.0,.0133,-.0167*
20,1,0.0,.0133,-.0167,.0167,-.014,0.0*
1,1,0.0,.0167,-.014*
%
%ADD16MACRO16*%
%AMMACRO17*
1,1,0.0,.04,0.0*
20,1,0.0,.04,0.0,.039392,-.006946,0.0*
1,1,0.0,.039392,-.006946*
20,1,0.0,.039392,-.006946,.037588,-.013681,0.0*
1,1,0.0,.037588,-.013681*
20,1,0.0,.037588,-.013681,.034641,-.02,0.0*
1,1,0.0,.034641,-.02*
20,1,0.0,.034641,-.02,.030642,-.025712,0.0*
1,1,0.0,.030642,-.025712*
20,1,0.0,.030642,-.025712,.025712,-.030642,0.0*
1,1,0.0,.025712,-.030642*
20,1,0.0,.025712,-.030642,.02,-.034641,0.0*
1,1,0.0,.02,-.034641*
20,1,0.0,.02,-.034641,.013681,-.037588,0.0*
1,1,0.0,.013681,-.037588*
20,1,0.0,.013681,-.037588,.006946,-.039392,0.0*
1,1,0.0,.006946,-.039392*
20,1,0.0,.006946,-.039392,0.0,-.04,0.0*
1,1,0.0,0.0,-.04*
20,1,0.0,0.0,-.04,-.006946,-.039392,0.0*
1,1,0.0,-.006946,-.039392*
20,1,0.0,-.006946,-.039392,-.013681,-.037588,0.0*
1,1,0.0,-.013681,-.037588*
20,1,0.0,-.013681,-.037588,-.02,-.034641,0.0*
1,1,0.0,-.02,-.034641*
20,1,0.0,-.02,-.034641,-.025712,-.030642,0.0*
1,1,0.0,-.025712,-.030642*
20,1,0.0,-.025712,-.030642,-.030642,-.025712,0.0*
1,1,0.0,-.030642,-.025712*
20,1,0.0,-.030642,-.025712,-.034641,-.02,0.0*
1,1,0.0,-.034641,-.02*
20,1,0.0,-.034641,-.02,-.037588,-.013681,0.0*
1,1,0.0,-.037588,-.013681*
20,1,0.0,-.037588,-.013681,-.039392,-.006946,0.0*
1,1,0.0,-.039392,-.006946*
20,1,0.0,-.039392,-.006946,-.04,0.0,0.0*
1,1,0.0,-.04,0.0*
20,1,0.0,-.04,0.0,-.039392,.006946,0.0*
1,1,0.0,-.039392,.006946*
20,1,0.0,-.039392,.006946,-.037588,.013681,0.0*
1,1,0.0,-.037588,.013681*
20,1,0.0,-.037588,.013681,-.034641,.02,0.0*
1,1,0.0,-.034641,.02*
20,1,0.0,-.034641,.02,-.030642,.025712,0.0*
1,1,0.0,-.030642,.025712*
20,1,0.0,-.030642,.025712,-.025712,.030642,0.0*
1,1,0.0,-.025712,.030642*
20,1,0.0,-.025712,.030642,-.02,.034641,0.0*
1,1,0.0,-.02,.034641*
20,1,0.0,-.02,.034641,-.013681,.037588,0.0*
1,1,0.0,-.013681,.037588*
20,1,0.0,-.013681,.037588,-.006946,.039392,0.0*
1,1,0.0,-.006946,.039392*
20,1,0.0,-.006946,.039392,0.0,.04,0.0*
1,1,0.0,0.0,.04*
20,1,0.0,0.0,.04,.006946,.039392,0.0*
1,1,0.0,.006946,.039392*
20,1,0.0,.006946,.039392,.013681,.037588,0.0*
1,1,0.0,.013681,.037588*
20,1,0.0,.013681,.037588,.02,.034641,0.0*
1,1,0.0,.02,.034641*
20,1,0.0,.02,.034641,.025712,.030642,0.0*
1,1,0.0,.025712,.030642*
20,1,0.0,.025712,.030642,.030642,.025712,0.0*
1,1,0.0,.030642,.025712*
20,1,0.0,.030642,.025712,.034641,.02,0.0*
1,1,0.0,.034641,.02*
20,1,0.0,.034641,.02,.037588,.013681,0.0*
1,1,0.0,.037588,.013681*
20,1,0.0,.037588,.013681,.039392,.006946,0.0*
1,1,0.0,.039392,.006946*
20,1,0.0,.039392,.006946,.04,0.0,0.0*
1,1,0.0,.04,0.0*
1,1,0.0,-.0147,-.02*
20,1,0.0,-.0147,-.02,-.0147,.02,0.0*
1,1,0.0,-.0147,.02*
20,1,0.0,-.0147,.02,-.0013,.02,0.0*
1,1,0.0,-.0013,.02*
20,1,0.0,-.0013,.02,.004,.018,0.0*
1,1,0.0,.004,.018*
20,1,0.0,.004,.018,.008,.0153,0.0*
1,1,0.0,.008,.0153*
20,1,0.0,.008,.0153,.0113,.0113,0.0*
1,1,0.0,.0113,.0113*
20,1,0.0,.0113,.0113,.014,.0067,0.0*
1,1,0.0,.014,.0067*
20,1,0.0,.014,.0067,.0147,0.0,0.0*
1,1,0.0,.0147,0.0*
20,1,0.0,.0147,0.0,.014,-.0067,0.0*
1,1,0.0,.014,-.0067*
20,1,0.0,.014,-.0067,.0113,-.0113,0.0*
1,1,0.0,.0113,-.0113*
20,1,0.0,.0113,-.0113,.008,-.0153,0.0*
1,1,0.0,.008,-.0153*
20,1,0.0,.008,-.0153,.004,-.018,0.0*
1,1,0.0,.004,-.018*
20,1,0.0,.004,-.018,-.0013,-.02,0.0*
1,1,0.0,-.0013,-.02*
20,1,0.0,-.0013,-.02,-.0147,-.02,0.0*
1,1,0.0,-.0147,-.02*
%
%ADD17MACRO17*%
%AMMACRO14*
1,1,0.0,.019,0.0*
20,1,0.0,.019,0.0,.018711,-.003299,0.0*
1,1,0.0,.018711,-.003299*
20,1,0.0,.018711,-.003299,.017854,-.006498,0.0*
1,1,0.0,.017854,-.006498*
20,1,0.0,.017854,-.006498,.016454,-.0095,0.0*
1,1,0.0,.016454,-.0095*
20,1,0.0,.016454,-.0095,.014555,-.012213,0.0*
1,1,0.0,.014555,-.012213*
20,1,0.0,.014555,-.012213,.012213,-.014555,0.0*
1,1,0.0,.012213,-.014555*
20,1,0.0,.012213,-.014555,.0095,-.016454,0.0*
1,1,0.0,.0095,-.016454*
20,1,0.0,.0095,-.016454,.006498,-.017854,0.0*
1,1,0.0,.006498,-.017854*
20,1,0.0,.006498,-.017854,.003299,-.018711,0.0*
1,1,0.0,.003299,-.018711*
20,1,0.0,.003299,-.018711,0.0,-.019,0.0*
1,1,0.0,0.0,-.019*
20,1,0.0,0.0,-.019,-.003299,-.018711,0.0*
1,1,0.0,-.003299,-.018711*
20,1,0.0,-.003299,-.018711,-.006498,-.017854,0.0*
1,1,0.0,-.006498,-.017854*
20,1,0.0,-.006498,-.017854,-.0095,-.016454,0.0*
1,1,0.0,-.0095,-.016454*
20,1,0.0,-.0095,-.016454,-.012213,-.014555,0.0*
1,1,0.0,-.012213,-.014555*
20,1,0.0,-.012213,-.014555,-.014555,-.012213,0.0*
1,1,0.0,-.014555,-.012213*
20,1,0.0,-.014555,-.012213,-.016454,-.0095,0.0*
1,1,0.0,-.016454,-.0095*
20,1,0.0,-.016454,-.0095,-.017854,-.006498,0.0*
1,1,0.0,-.017854,-.006498*
20,1,0.0,-.017854,-.006498,-.018711,-.003299,0.0*
1,1,0.0,-.018711,-.003299*
20,1,0.0,-.018711,-.003299,-.019,0.0,0.0*
1,1,0.0,-.019,0.0*
20,1,0.0,-.019,0.0,-.018711,.003299,0.0*
1,1,0.0,-.018711,.003299*
20,1,0.0,-.018711,.003299,-.017854,.006498,0.0*
1,1,0.0,-.017854,.006498*
20,1,0.0,-.017854,.006498,-.016454,.0095,0.0*
1,1,0.0,-.016454,.0095*
20,1,0.0,-.016454,.0095,-.014555,.012213,0.0*
1,1,0.0,-.014555,.012213*
20,1,0.0,-.014555,.012213,-.012213,.014555,0.0*
1,1,0.0,-.012213,.014555*
20,1,0.0,-.012213,.014555,-.0095,.016454,0.0*
1,1,0.0,-.0095,.016454*
20,1,0.0,-.0095,.016454,-.006498,.017854,0.0*
1,1,0.0,-.006498,.017854*
20,1,0.0,-.006498,.017854,-.003299,.018711,0.0*
1,1,0.0,-.003299,.018711*
20,1,0.0,-.003299,.018711,0.0,.019,0.0*
1,1,0.0,0.0,.019*
20,1,0.0,0.0,.019,.003299,.018711,0.0*
1,1,0.0,.003299,.018711*
20,1,0.0,.003299,.018711,.006498,.017854,0.0*
1,1,0.0,.006498,.017854*
20,1,0.0,.006498,.017854,.0095,.016454,0.0*
1,1,0.0,.0095,.016454*
20,1,0.0,.0095,.016454,.012213,.014555,0.0*
1,1,0.0,.012213,.014555*
20,1,0.0,.012213,.014555,.014555,.012213,0.0*
1,1,0.0,.014555,.012213*
20,1,0.0,.014555,.012213,.016454,.0095,0.0*
1,1,0.0,.016454,.0095*
20,1,0.0,.016454,.0095,.017854,.006498,0.0*
1,1,0.0,.017854,.006498*
20,1,0.0,.017854,.006498,.018711,.003299,0.0*
1,1,0.0,.018711,.003299*
20,1,0.0,.018711,.003299,.019,0.0,0.0*
1,1,0.0,.019,0.0*
1,1,0.0,.0025,.0006*
20,1,0.0,.0025,.0006,.0038,.0016,0.0*
1,1,0.0,.0038,.0016*
20,1,0.0,.0038,.0016,.0047,.0032,0.0*
1,1,0.0,.0047,.0032*
20,1,0.0,.0047,.0032,.0054,.0054,0.0*
1,1,0.0,.0054,.0054*
20,1,0.0,.0054,.0054,.0047,.0073,0.0*
1,1,0.0,.0047,.0073*
20,1,0.0,.0047,.0073,.0035,.0085,0.0*
1,1,0.0,.0035,.0085*
20,1,0.0,.0035,.0085,.0013,.0095,0.0*
1,1,0.0,.0013,.0095*
20,1,0.0,.0013,.0095,-.0073,.0095,0.0*
1,1,0.0,-.0073,.0095*
20,1,0.0,-.0073,.0095,-.0073,-.0095,0.0*
1,1,0.0,-.0073,-.0095*
20,1,0.0,-.0073,-.0095,.0032,-.0095,0.0*
1,1,0.0,.0032,-.0095*
20,1,0.0,.0032,-.0095,.0054,-.0082,0.0*
1,1,0.0,.0054,-.0082*
20,1,0.0,.0054,-.0082,.0067,-.0063,0.0*
1,1,0.0,.0067,-.0063*
20,1,0.0,.0067,-.0063,.0073,-.0041,0.0*
1,1,0.0,.0073,-.0041*
20,1,0.0,.0073,-.0041,.0067,-.0019,0.0*
1,1,0.0,.0067,-.0019*
20,1,0.0,.0067,-.0019,.0047,0.0,0.0*
1,1,0.0,.0047,0.0*
20,1,0.0,.0047,0.0,.0025,.0006,0.0*
1,1,0.0,.0025,.0006*
20,1,0.0,.0025,.0006,-.0073,.0006,0.0*
1,1,0.0,-.0073,.0006*
%
%ADD14MACRO14*%
%AMMACRO10*
1,1,0.0,.025,-.0375*
20,1,0.0,.025,-.0375,-.025,-.0375,0.0*
1,1,0.0,-.025,-.0375*
20,1,0.0,-.025,-.0375,-.025,.0375,0.0*
1,1,0.0,-.025,.0375*
20,1,0.0,-.025,.0375,.025,.0375,0.0*
1,1,0.0,.025,.0375*
1,1,0.0,.005,.0013*
20,1,0.0,.005,.0013,-.025,.0013,0.0*
1,1,0.0,-.025,.0013*
%
%ADD10MACRO10*%
%AMMACRO15*
1,1,0.0,.043,0.0*
20,1,0.0,.043,0.0,.042347,-.007467,0.0*
1,1,0.0,.042347,-.007467*
20,1,0.0,.042347,-.007467,.040407,-.014707,0.0*
1,1,0.0,.040407,-.014707*
20,1,0.0,.040407,-.014707,.037239,-.0215,0.0*
1,1,0.0,.037239,-.0215*
20,1,0.0,.037239,-.0215,.03294,-.02764,0.0*
1,1,0.0,.03294,-.02764*
20,1,0.0,.03294,-.02764,.02764,-.03294,0.0*
1,1,0.0,.02764,-.03294*
20,1,0.0,.02764,-.03294,.0215,-.037239,0.0*
1,1,0.0,.0215,-.037239*
20,1,0.0,.0215,-.037239,.014707,-.040407,0.0*
1,1,0.0,.014707,-.040407*
20,1,0.0,.014707,-.040407,.007467,-.042347,0.0*
1,1,0.0,.007467,-.042347*
20,1,0.0,.007467,-.042347,0.0,-.043,0.0*
1,1,0.0,0.0,-.043*
20,1,0.0,0.0,-.043,-.007467,-.042347,0.0*
1,1,0.0,-.007467,-.042347*
20,1,0.0,-.007467,-.042347,-.014707,-.040407,0.0*
1,1,0.0,-.014707,-.040407*
20,1,0.0,-.014707,-.040407,-.0215,-.037239,0.0*
1,1,0.0,-.0215,-.037239*
20,1,0.0,-.0215,-.037239,-.02764,-.03294,0.0*
1,1,0.0,-.02764,-.03294*
20,1,0.0,-.02764,-.03294,-.03294,-.02764,0.0*
1,1,0.0,-.03294,-.02764*
20,1,0.0,-.03294,-.02764,-.037239,-.0215,0.0*
1,1,0.0,-.037239,-.0215*
20,1,0.0,-.037239,-.0215,-.040407,-.014707,0.0*
1,1,0.0,-.040407,-.014707*
20,1,0.0,-.040407,-.014707,-.042347,-.007467,0.0*
1,1,0.0,-.042347,-.007467*
20,1,0.0,-.042347,-.007467,-.043,0.0,0.0*
1,1,0.0,-.043,0.0*
20,1,0.0,-.043,0.0,-.042347,.007467,0.0*
1,1,0.0,-.042347,.007467*
20,1,0.0,-.042347,.007467,-.040407,.014707,0.0*
1,1,0.0,-.040407,.014707*
20,1,0.0,-.040407,.014707,-.037239,.0215,0.0*
1,1,0.0,-.037239,.0215*
20,1,0.0,-.037239,.0215,-.03294,.02764,0.0*
1,1,0.0,-.03294,.02764*
20,1,0.0,-.03294,.02764,-.02764,.03294,0.0*
1,1,0.0,-.02764,.03294*
20,1,0.0,-.02764,.03294,-.0215,.037239,0.0*
1,1,0.0,-.0215,.037239*
20,1,0.0,-.0215,.037239,-.014707,.040407,0.0*
1,1,0.0,-.014707,.040407*
20,1,0.0,-.014707,.040407,-.007467,.042347,0.0*
1,1,0.0,-.007467,.042347*
20,1,0.0,-.007467,.042347,0.0,.043,0.0*
1,1,0.0,0.0,.043*
20,1,0.0,0.0,.043,.007467,.042347,0.0*
1,1,0.0,.007467,.042347*
20,1,0.0,.007467,.042347,.014707,.040407,0.0*
1,1,0.0,.014707,.040407*
20,1,0.0,.014707,.040407,.0215,.037239,0.0*
1,1,0.0,.0215,.037239*
20,1,0.0,.0215,.037239,.02764,.03294,0.0*
1,1,0.0,.02764,.03294*
20,1,0.0,.02764,.03294,.03294,.02764,0.0*
1,1,0.0,.03294,.02764*
20,1,0.0,.03294,.02764,.037239,.0215,0.0*
1,1,0.0,.037239,.0215*
20,1,0.0,.037239,.0215,.040407,.014707,0.0*
1,1,0.0,.040407,.014707*
20,1,0.0,.040407,.014707,.042347,.007467,0.0*
1,1,0.0,.042347,.007467*
20,1,0.0,.042347,.007467,.043,0.0,0.0*
1,1,0.0,.043,0.0*
1,1,0.0,-.0158,-.0215*
20,1,0.0,-.0158,-.0215,-.0158,.0215,0.0*
1,1,0.0,-.0158,.0215*
20,1,0.0,-.0158,.0215,-.0014,.0215,0.0*
1,1,0.0,-.0014,.0215*
20,1,0.0,-.0014,.0215,.0043,.0193,0.0*
1,1,0.0,.0043,.0193*
20,1,0.0,.0043,.0193,.0086,.0165,0.0*
1,1,0.0,.0086,.0165*
20,1,0.0,.0086,.0165,.0122,.0122,0.0*
1,1,0.0,.0122,.0122*
20,1,0.0,.0122,.0122,.0151,.0072,0.0*
1,1,0.0,.0151,.0072*
20,1,0.0,.0151,.0072,.0158,0.0,0.0*
1,1,0.0,.0158,0.0*
20,1,0.0,.0158,0.0,.0151,-.0072,0.0*
1,1,0.0,.0151,-.0072*
20,1,0.0,.0151,-.0072,.0122,-.0122,0.0*
1,1,0.0,.0122,-.0122*
20,1,0.0,.0122,-.0122,.0086,-.0165,0.0*
1,1,0.0,.0086,-.0165*
20,1,0.0,.0086,-.0165,.0043,-.0194,0.0*
1,1,0.0,.0043,-.0194*
20,1,0.0,.0043,-.0194,-.0014,-.0215,0.0*
1,1,0.0,-.0014,-.0215*
20,1,0.0,-.0014,-.0215,-.0158,-.0215,0.0*
1,1,0.0,-.0158,-.0215*
%
%ADD15MACRO15*%
%ADD22C,.007*%
%ADD23C,.008*%
%ADD24C,.05*%
%ADD25C,.025*%
G75*
%LPD*%
G75*
G54D10*
X10000Y10000D03*
X30000Y340000D03*
X10000Y590000D03*
X170000Y340000D03*
X190000Y10000D03*
Y590000D03*
G54D20*
X249500Y42500D03*
G54D11*
X25500Y233000D03*
X41800Y442300D03*
X62500Y186000D03*
X63300Y446800D03*
X78700Y464500D03*
X85000Y513000D03*
X90500Y239500D03*
G54D21*
X249500Y32500D03*
G54D12*
X24000Y475600D03*
X10400Y457600D03*
X20400D03*
X24000Y505600D03*
Y495600D03*
Y485600D03*
Y535600D03*
Y525600D03*
Y515600D03*
Y565600D03*
Y555600D03*
Y545600D03*
X98800Y442400D03*
X108800D03*
X98800Y452400D03*
X108800D03*
X145900Y29200D03*
X118800Y442400D03*
Y452400D03*
X155900Y29200D03*
X175600Y501600D03*
Y491600D03*
Y481600D03*
Y531600D03*
Y521600D03*
Y511600D03*
Y561600D03*
Y551600D03*
Y541600D03*
Y571600D03*
G54D22*
G01X235550Y60000D02*
Y65000D01*
X237950D01*
G01X237070Y62580D02*
X235550D01*
G01X241090Y65000D02*
X242610D01*
G01X241850D02*
Y60000D01*
G01X241090D02*
X242610D01*
G01X247330Y62500D02*
X248600D01*
Y61000D01*
X248220Y60500D01*
X247770Y60170D01*
X247140Y60000D01*
X246510Y60170D01*
X246060Y60500D01*
X245680Y61000D01*
X245430Y61580D01*
X245300Y62250D01*
Y62830D01*
X245430Y63330D01*
X245680Y63920D01*
X246060Y64420D01*
X246440Y64750D01*
X246950Y65000D01*
X247390D01*
X247900Y64830D01*
X248280Y64500D01*
G01X250660Y65000D02*
Y61420D01*
X250910Y60670D01*
X251420Y60170D01*
X252050Y60000D01*
X252680Y60170D01*
X253190Y60670D01*
X253440Y61420D01*
Y65000D01*
G01X255880Y60000D02*
Y65000D01*
X257470D01*
X257970Y64750D01*
X258290Y64420D01*
X258420Y63750D01*
X258290Y63080D01*
X257910Y62670D01*
X257470Y62420D01*
X255880D01*
G01X257470D02*
X258420Y60000D01*
G01X263520D02*
X260980D01*
Y65000D01*
X263520D01*
G01X262500Y62580D02*
X260980D01*
G01X265360Y95000D02*
Y100000D01*
X266620D01*
X267130Y99750D01*
X267510Y99420D01*
X267830Y98920D01*
X268080Y98330D01*
X268140Y97500D01*
X268080Y96670D01*
X267830Y96080D01*
X267510Y95580D01*
X267130Y95250D01*
X266620Y95000D01*
X265360D01*
G01X270580D02*
Y100000D01*
X272170D01*
X272670Y99750D01*
X272990Y99420D01*
X273120Y98750D01*
X272990Y98080D01*
X272610Y97670D01*
X272170Y97420D01*
X270580D01*
G01X272170D02*
X273120Y95000D01*
G01X276190Y100000D02*
X277710D01*
G01X276950D02*
Y95000D01*
G01X276190D02*
X277710D01*
G01X280780Y100000D02*
Y95000D01*
X283320D01*
G01X285880Y100000D02*
Y95000D01*
X288420D01*
G01X298740Y99580D02*
X298360Y99830D01*
X297920Y100000D01*
X297410D01*
X296840Y99750D01*
X296400Y99330D01*
X296080Y98830D01*
X295830Y98000D01*
X295770Y97250D01*
X295890Y96500D01*
X296080Y96000D01*
X296460Y95500D01*
X296910Y95170D01*
X297350Y95000D01*
X297790D01*
X298240Y95170D01*
X298620Y95420D01*
X298930Y95750D01*
G01X301120Y95000D02*
Y100000D01*
G01X303780D02*
Y95000D01*
G01Y97500D02*
X301120D01*
G01X305970Y95000D02*
X307550Y100000D01*
X309130Y95000D01*
G01X308560Y96750D02*
X306540D01*
G01X311380Y95000D02*
Y100000D01*
X312970D01*
X313470Y99750D01*
X313790Y99420D01*
X313920Y98750D01*
X313790Y98080D01*
X313410Y97670D01*
X312970Y97420D01*
X311380D01*
G01X312970D02*
X313920Y95000D01*
G01X317750Y100000D02*
Y95000D01*
G01X316290Y100000D02*
X319210D01*
G01X322850Y94830D02*
X322720Y94920D01*
Y95080D01*
X322850Y95170D01*
X322980Y95080D01*
Y94920D01*
X322850Y94830D01*
G01Y97080D02*
X322720Y97170D01*
Y97330D01*
X322850Y97420D01*
X322980Y97330D01*
Y97170D01*
X322850Y97080D01*
G01X333050Y100000D02*
Y95000D01*
G01X331590Y100000D02*
X334510D01*
G01X338150Y95000D02*
X337640Y95080D01*
X337200Y95420D01*
X336820Y95920D01*
X336570Y96500D01*
X336440Y97170D01*
Y97830D01*
X336570Y98500D01*
X336820Y99080D01*
X337200Y99580D01*
X337640Y99920D01*
X338150Y100000D01*
X338660Y99920D01*
X339100Y99580D01*
X339480Y99080D01*
X339730Y98500D01*
X339860Y97830D01*
Y97170D01*
X339730Y96500D01*
X339480Y95920D01*
X339100Y95420D01*
X338660Y95080D01*
X338150Y95000D01*
G01X341980D02*
Y100000D01*
X343500D01*
X344010Y99750D01*
X344390Y99170D01*
X344520Y98500D01*
X344390Y97830D01*
X344070Y97330D01*
X343500Y97080D01*
X341980D01*
G01X353450Y100000D02*
Y95000D01*
G01X352560Y98330D02*
X354340D01*
G01X358550Y95000D02*
X358170Y95080D01*
X357790Y95420D01*
X357540Y96000D01*
X357410Y96670D01*
X357540Y97330D01*
X357790Y97920D01*
X358170Y98250D01*
X358550Y98330D01*
X358930Y98250D01*
X359310Y97920D01*
X359560Y97330D01*
X359630Y96670D01*
X359560Y96000D01*
X359310Y95420D01*
X358930Y95080D01*
X358550Y95000D01*
G01X369260Y97670D02*
X369510Y97920D01*
X369700Y98330D01*
X369830Y98920D01*
X369700Y99420D01*
X369450Y99750D01*
X369000Y100000D01*
X367290D01*
Y95000D01*
X369380D01*
X369830Y95330D01*
X370080Y95830D01*
X370210Y96420D01*
X370080Y97000D01*
X369700Y97500D01*
X369260Y97670D01*
X367290D01*
G01X373850Y95000D02*
X373340Y95080D01*
X372900Y95420D01*
X372520Y95920D01*
X372270Y96500D01*
X372140Y97170D01*
Y97830D01*
X372270Y98500D01*
X372520Y99080D01*
X372900Y99580D01*
X373340Y99920D01*
X373850Y100000D01*
X374360Y99920D01*
X374800Y99580D01*
X375180Y99080D01*
X375430Y98500D01*
X375560Y97830D01*
Y97170D01*
X375430Y96500D01*
X375180Y95920D01*
X374800Y95420D01*
X374360Y95080D01*
X373850Y95000D01*
G01X378950Y100000D02*
Y95000D01*
G01X377490Y100000D02*
X380410D01*
G01X384050D02*
Y95000D01*
G01X382590Y100000D02*
X385510D01*
G01X389150Y95000D02*
X388640Y95080D01*
X388200Y95420D01*
X387820Y95920D01*
X387570Y96500D01*
X387440Y97170D01*
Y97830D01*
X387570Y98500D01*
X387820Y99080D01*
X388200Y99580D01*
X388640Y99920D01*
X389150Y100000D01*
X389660Y99920D01*
X390100Y99580D01*
X390480Y99080D01*
X390730Y98500D01*
X390860Y97830D01*
Y97170D01*
X390730Y96500D01*
X390480Y95920D01*
X390100Y95420D01*
X389660Y95080D01*
X389150Y95000D01*
G01X392600D02*
Y100000D01*
X394250Y95830D01*
X395900Y100000D01*
Y95000D01*
G01X296700Y0D02*
Y5000D01*
X295940Y4000D01*
G01Y0D02*
X297460D01*
G01X300600Y4170D02*
X300980Y4670D01*
X301420Y4920D01*
X301930Y5000D01*
X302560Y4830D01*
X303000Y4420D01*
X303130Y3920D01*
X303070Y3420D01*
X302810Y3000D01*
X301550Y2170D01*
X300980Y1580D01*
X300600Y750D01*
X300470Y0D01*
X303130D01*
G01X305510Y750D02*
X305890Y330D01*
X306330Y80D01*
X306900Y0D01*
X307470Y170D01*
X307910Y500D01*
X308230Y1080D01*
X308290Y1750D01*
X308170Y2420D01*
X307850Y2830D01*
X307410Y3170D01*
X306960Y3250D01*
X306520Y3170D01*
X305950Y2830D01*
X306140Y5000D01*
X307850D01*
G01X312000Y-170D02*
X311870Y-80D01*
Y80D01*
X312000Y170D01*
X312130Y80D01*
Y-80D01*
X312000Y-170D01*
G01X317100Y5000D02*
X316590Y4830D01*
X316210Y4420D01*
X315960Y3920D01*
X315770Y3250D01*
X315710Y2500D01*
X315770Y1750D01*
X315960Y1080D01*
X316210Y580D01*
X316590Y170D01*
X317100Y0D01*
X317610Y170D01*
X317990Y580D01*
X318240Y1080D01*
X318430Y1750D01*
X318490Y2500D01*
X318430Y3250D01*
X318240Y3920D01*
X317990Y4420D01*
X317610Y4830D01*
X317100Y5000D01*
G01X277920Y70000D02*
X279500Y75000D01*
X281080Y70000D01*
G01X280510Y71750D02*
X278490D01*
G01X283330Y75000D02*
Y70000D01*
X285870D01*
G01X288430Y75000D02*
Y70000D01*
X290970D01*
G01X298510Y75000D02*
Y71420D01*
X298760Y70670D01*
X299270Y70170D01*
X299900Y70000D01*
X300530Y70170D01*
X301040Y70670D01*
X301290Y71420D01*
Y75000D01*
G01X303540Y70000D02*
Y75000D01*
X306460Y70000D01*
Y75000D01*
G01X309340D02*
X310860D01*
G01X310100D02*
Y70000D01*
G01X309340D02*
X310860D01*
G01X315200Y75000D02*
Y70000D01*
G01X313740Y75000D02*
X316660D01*
G01X318970Y70670D02*
X319480Y70250D01*
X320050Y70000D01*
X320550D01*
X321060Y70250D01*
X321440Y70670D01*
X321630Y71250D01*
X321500Y71830D01*
X321190Y72330D01*
X320620Y72670D01*
X319860Y72830D01*
X319410Y73170D01*
X319220Y73750D01*
X319350Y74330D01*
X319670Y74750D01*
X320110Y75000D01*
X320550D01*
X321000Y74830D01*
X321380Y74420D01*
G01X328920Y70000D02*
X330500Y75000D01*
X332080Y70000D01*
G01X331510Y71750D02*
X329490D01*
G01X334330Y70000D02*
Y75000D01*
X335920D01*
X336420Y74750D01*
X336740Y74420D01*
X336870Y73750D01*
X336740Y73080D01*
X336360Y72670D01*
X335920Y72420D01*
X334330D01*
G01X335920D02*
X336870Y70000D01*
G01X341970D02*
X339430D01*
Y75000D01*
X341970D01*
G01X340950Y72580D02*
X339430D01*
G01X350140Y75000D02*
X351660D01*
G01X350900D02*
Y70000D01*
G01X350140D02*
X351660D01*
G01X354540D02*
Y75000D01*
X357460Y70000D01*
Y75000D01*
G01X364550Y70000D02*
Y75000D01*
X366200Y70830D01*
X367850Y75000D01*
Y70000D01*
G01X370540Y75000D02*
X372060D01*
G01X371300D02*
Y70000D01*
G01X370540D02*
X372060D01*
G01X375130Y75000D02*
Y70000D01*
X377670D01*
G01X380170Y70670D02*
X380680Y70250D01*
X381250Y70000D01*
X381750D01*
X382260Y70250D01*
X382640Y70670D01*
X382830Y71250D01*
X382700Y71830D01*
X382390Y72330D01*
X381820Y72670D01*
X381060Y72830D01*
X380610Y73170D01*
X380420Y73750D01*
X380550Y74330D01*
X380870Y74750D01*
X381310Y75000D01*
X381750D01*
X382200Y74830D01*
X382580Y74420D01*
G01X300010Y20000D02*
Y25000D01*
X297670Y21420D01*
X300830D01*
G01X303150Y24170D02*
X303530Y24670D01*
X303970Y24920D01*
X304480Y25000D01*
X305110Y24830D01*
X305550Y24420D01*
X305680Y23920D01*
X305620Y23420D01*
X305360Y23000D01*
X304100Y22170D01*
X303530Y21580D01*
X303150Y20750D01*
X303020Y20000D01*
X305680D01*
G01X309450Y19830D02*
X309320Y19920D01*
Y20080D01*
X309450Y20170D01*
X309580Y20080D01*
Y19920D01*
X309450Y19830D01*
G01X314550Y25000D02*
X314040Y24830D01*
X313660Y24420D01*
X313410Y23920D01*
X313220Y23250D01*
X313160Y22500D01*
X313220Y21750D01*
X313410Y21080D01*
X313660Y20580D01*
X314040Y20170D01*
X314550Y20000D01*
X315060Y20170D01*
X315440Y20580D01*
X315690Y21080D01*
X315880Y21750D01*
X315940Y22500D01*
X315880Y23250D01*
X315690Y23920D01*
X315440Y24420D01*
X315060Y24830D01*
X314550Y25000D01*
G01X299250Y10000D02*
X299690Y10080D01*
X300200Y10330D01*
X300520Y10750D01*
X300640Y11330D01*
X300520Y11920D01*
X300140Y12420D01*
X299570Y12670D01*
X298930D01*
X298550Y12830D01*
X298240Y13250D01*
X298110Y13830D01*
X298300Y14420D01*
X298740Y14830D01*
X299250Y15000D01*
X299760Y14830D01*
X300200Y14420D01*
X300390Y13830D01*
X300260Y13250D01*
X299950Y12830D01*
X299570Y12670D01*
X298930D01*
X298360Y12420D01*
X297980Y11920D01*
X297860Y11330D01*
X297980Y10750D01*
X298300Y10330D01*
X298810Y10080D01*
X299250Y10000D01*
G01X303150Y12080D02*
X303590Y12670D01*
X303970Y13000D01*
X304480Y13170D01*
X304920Y13000D01*
X305240Y12670D01*
X305490Y12170D01*
X305550Y11580D01*
X305490Y11080D01*
X305240Y10580D01*
X304860Y10170D01*
X304410Y10000D01*
X303910Y10170D01*
X303460Y10670D01*
X303210Y11420D01*
X303150Y12250D01*
X303270Y13330D01*
X303460Y13920D01*
X303780Y14500D01*
X304220Y14920D01*
X304670Y15000D01*
X305110Y14830D01*
X305430Y14420D01*
G01X309450Y9830D02*
X309320Y9920D01*
Y10080D01*
X309450Y10170D01*
X309580Y10080D01*
Y9920D01*
X309450Y9830D01*
G01X314550Y15000D02*
X314040Y14830D01*
X313660Y14420D01*
X313410Y13920D01*
X313220Y13250D01*
X313160Y12500D01*
X313220Y11750D01*
X313410Y11080D01*
X313660Y10580D01*
X314040Y10170D01*
X314550Y10000D01*
X315060Y10170D01*
X315440Y10580D01*
X315690Y11080D01*
X315880Y11750D01*
X315940Y12500D01*
X315880Y13250D01*
X315690Y13920D01*
X315440Y14420D01*
X315060Y14830D01*
X314550Y15000D01*
G01X298050Y54170D02*
X298430Y54670D01*
X298870Y54920D01*
X299380Y55000D01*
X300010Y54830D01*
X300450Y54420D01*
X300580Y53920D01*
X300520Y53420D01*
X300260Y53000D01*
X299000Y52170D01*
X298430Y51580D01*
X298050Y50750D01*
X297920Y50000D01*
X300580D01*
G01X304350Y55000D02*
X303840Y54830D01*
X303460Y54420D01*
X303210Y53920D01*
X303020Y53250D01*
X302960Y52500D01*
X303020Y51750D01*
X303210Y51080D01*
X303460Y50580D01*
X303840Y50170D01*
X304350Y50000D01*
X304860Y50170D01*
X305240Y50580D01*
X305490Y51080D01*
X305680Y51750D01*
X305740Y52500D01*
X305680Y53250D01*
X305490Y53920D01*
X305240Y54420D01*
X304860Y54830D01*
X304350Y55000D01*
G01X309450Y49830D02*
X309320Y49920D01*
Y50080D01*
X309450Y50170D01*
X309580Y50080D01*
Y49920D01*
X309450Y49830D01*
G01X314550Y55000D02*
X314040Y54830D01*
X313660Y54420D01*
X313410Y53920D01*
X313220Y53250D01*
X313160Y52500D01*
X313220Y51750D01*
X313410Y51080D01*
X313660Y50580D01*
X314040Y50170D01*
X314550Y50000D01*
X315060Y50170D01*
X315440Y50580D01*
X315690Y51080D01*
X315880Y51750D01*
X315940Y52500D01*
X315880Y53250D01*
X315690Y53920D01*
X315440Y54420D01*
X315060Y54830D01*
X314550Y55000D01*
G01X297860Y41000D02*
X298240Y40420D01*
X298740Y40080D01*
X299310Y40000D01*
X299820Y40080D01*
X300330Y40500D01*
X300640Y41000D01*
X300710Y41500D01*
X300580Y42080D01*
X300140Y42500D01*
X299690Y42670D01*
X299120D01*
G01X299690D02*
X300070Y42920D01*
X300390Y43330D01*
X300520Y43830D01*
X300390Y44330D01*
X300070Y44750D01*
X299500Y45000D01*
X298930Y44920D01*
X298360Y44580D01*
G01X302960Y40750D02*
X303340Y40330D01*
X303780Y40080D01*
X304350Y40000D01*
X304920Y40170D01*
X305360Y40500D01*
X305680Y41080D01*
X305740Y41750D01*
X305620Y42420D01*
X305300Y42830D01*
X304860Y43170D01*
X304410Y43250D01*
X303970Y43170D01*
X303400Y42830D01*
X303590Y45000D01*
X305300D01*
G01X309450Y39830D02*
X309320Y39920D01*
Y40080D01*
X309450Y40170D01*
X309580Y40080D01*
Y39920D01*
X309450Y39830D01*
G01X314550Y45000D02*
X314040Y44830D01*
X313660Y44420D01*
X313410Y43920D01*
X313220Y43250D01*
X313160Y42500D01*
X313220Y41750D01*
X313410Y41080D01*
X313660Y40580D01*
X314040Y40170D01*
X314550Y40000D01*
X315060Y40170D01*
X315440Y40580D01*
X315690Y41080D01*
X315880Y41750D01*
X315940Y42500D01*
X315880Y43250D01*
X315690Y43920D01*
X315440Y44420D01*
X315060Y44830D01*
X314550Y45000D01*
G01X297860Y31000D02*
X298240Y30420D01*
X298740Y30080D01*
X299310Y30000D01*
X299820Y30080D01*
X300330Y30500D01*
X300640Y31000D01*
X300710Y31500D01*
X300580Y32080D01*
X300140Y32500D01*
X299690Y32670D01*
X299120D01*
G01X299690D02*
X300070Y32920D01*
X300390Y33330D01*
X300520Y33830D01*
X300390Y34330D01*
X300070Y34750D01*
X299500Y35000D01*
X298930Y34920D01*
X298360Y34580D01*
G01X304350Y30000D02*
X304790Y30080D01*
X305300Y30330D01*
X305620Y30750D01*
X305740Y31330D01*
X305620Y31920D01*
X305240Y32420D01*
X304670Y32670D01*
X304030D01*
X303650Y32830D01*
X303340Y33250D01*
X303210Y33830D01*
X303400Y34420D01*
X303840Y34830D01*
X304350Y35000D01*
X304860Y34830D01*
X305300Y34420D01*
X305490Y33830D01*
X305360Y33250D01*
X305050Y32830D01*
X304670Y32670D01*
X304030D01*
X303460Y32420D01*
X303080Y31920D01*
X302960Y31330D01*
X303080Y30750D01*
X303400Y30330D01*
X303910Y30080D01*
X304350Y30000D01*
G01X309450Y29830D02*
X309320Y29920D01*
Y30080D01*
X309450Y30170D01*
X309580Y30080D01*
Y29920D01*
X309450Y29830D01*
G01X314550Y35000D02*
X314040Y34830D01*
X313660Y34420D01*
X313410Y33920D01*
X313220Y33250D01*
X313160Y32500D01*
X313220Y31750D01*
X313410Y31080D01*
X313660Y30580D01*
X314040Y30170D01*
X314550Y30000D01*
X315060Y30170D01*
X315440Y30580D01*
X315690Y31080D01*
X315880Y31750D01*
X315940Y32500D01*
X315880Y33250D01*
X315690Y33920D01*
X315440Y34420D01*
X315060Y34830D01*
X314550Y35000D01*
G01X297920Y60670D02*
X298430Y60250D01*
X299000Y60000D01*
X299500D01*
X300010Y60250D01*
X300390Y60670D01*
X300580Y61250D01*
X300450Y61830D01*
X300140Y62330D01*
X299570Y62670D01*
X298810Y62830D01*
X298360Y63170D01*
X298170Y63750D01*
X298300Y64330D01*
X298620Y64750D01*
X299060Y65000D01*
X299500D01*
X299950Y64830D01*
X300330Y64420D01*
G01X303590Y65000D02*
X305110D01*
G01X304350D02*
Y60000D01*
G01X303590D02*
X305110D01*
G01X308250Y65000D02*
X310650D01*
X308250Y60000D01*
X310650D01*
G01X315820D02*
X313280D01*
Y65000D01*
X315820D01*
G01X314800Y62580D02*
X313280D01*
G01X347540Y0D02*
Y5000D01*
X350460Y0D01*
Y5000D01*
G01X354100Y0D02*
X353590Y80D01*
X353150Y420D01*
X352770Y920D01*
X352520Y1500D01*
X352390Y2170D01*
Y2830D01*
X352520Y3500D01*
X352770Y4080D01*
X353150Y4580D01*
X353590Y4920D01*
X354100Y5000D01*
X354610Y4920D01*
X355050Y4580D01*
X355430Y4080D01*
X355680Y3500D01*
X355810Y2830D01*
Y2170D01*
X355680Y1500D01*
X355430Y920D01*
X355050Y420D01*
X354610Y80D01*
X354100Y0D01*
G01X357740D02*
Y5000D01*
X360660Y0D01*
Y5000D01*
G01X363480Y1670D02*
X365120D01*
G01X368130Y0D02*
Y5000D01*
X369650D01*
X370160Y4750D01*
X370540Y4170D01*
X370670Y3500D01*
X370540Y2830D01*
X370220Y2330D01*
X369650Y2080D01*
X368130D01*
G01X373230Y5000D02*
Y0D01*
X375770D01*
G01X378020D02*
X379600Y5000D01*
X381180Y0D01*
G01X380610Y1750D02*
X378590D01*
G01X384700Y5000D02*
Y0D01*
G01X383240Y5000D02*
X386160D01*
G01X391070Y0D02*
X388530D01*
Y5000D01*
X391070D01*
G01X390050Y2580D02*
X388530D01*
G01X393510Y0D02*
Y5000D01*
X394770D01*
X395280Y4750D01*
X395660Y4420D01*
X395980Y3920D01*
X396230Y3330D01*
X396290Y2500D01*
X396230Y1670D01*
X395980Y1080D01*
X395660Y580D01*
X395280Y250D01*
X394770Y0D01*
X393510D01*
G01X357930Y20000D02*
Y25000D01*
X359450D01*
X359960Y24750D01*
X360340Y24170D01*
X360470Y23500D01*
X360340Y22830D01*
X360020Y22330D01*
X359450Y22080D01*
X357930D01*
G01X363030Y25000D02*
Y20000D01*
X365570D01*
G01X367820D02*
X369400Y25000D01*
X370980Y20000D01*
G01X370410Y21750D02*
X368390D01*
G01X374500Y25000D02*
Y20000D01*
G01X373040Y25000D02*
X375960D01*
G01X380870Y20000D02*
X378330D01*
Y25000D01*
X380870D01*
G01X379850Y22580D02*
X378330D01*
G01X383310Y20000D02*
Y25000D01*
X384570D01*
X385080Y24750D01*
X385460Y24420D01*
X385780Y23920D01*
X386030Y23330D01*
X386090Y22500D01*
X386030Y21670D01*
X385780Y21080D01*
X385460Y20580D01*
X385080Y20250D01*
X384570Y20000D01*
X383310D01*
G01X357930Y10000D02*
Y15000D01*
X359450D01*
X359960Y14750D01*
X360340Y14170D01*
X360470Y13500D01*
X360340Y12830D01*
X360020Y12330D01*
X359450Y12080D01*
X357930D01*
G01X363030Y15000D02*
Y10000D01*
X365570D01*
G01X367820D02*
X369400Y15000D01*
X370980Y10000D01*
G01X370410Y11750D02*
X368390D01*
G01X374500Y15000D02*
Y10000D01*
G01X373040Y15000D02*
X375960D01*
G01X380870Y10000D02*
X378330D01*
Y15000D01*
X380870D01*
G01X379850Y12580D02*
X378330D01*
G01X383310Y10000D02*
Y15000D01*
X384570D01*
X385080Y14750D01*
X385460Y14420D01*
X385780Y13920D01*
X386030Y13330D01*
X386090Y12500D01*
X386030Y11670D01*
X385780Y11080D01*
X385460Y10580D01*
X385080Y10250D01*
X384570Y10000D01*
X383310D01*
G01X357930Y50000D02*
Y55000D01*
X359450D01*
X359960Y54750D01*
X360340Y54170D01*
X360470Y53500D01*
X360340Y52830D01*
X360020Y52330D01*
X359450Y52080D01*
X357930D01*
G01X363030Y55000D02*
Y50000D01*
X365570D01*
G01X367820D02*
X369400Y55000D01*
X370980Y50000D01*
G01X370410Y51750D02*
X368390D01*
G01X374500Y55000D02*
Y50000D01*
G01X373040Y55000D02*
X375960D01*
G01X380870Y50000D02*
X378330D01*
Y55000D01*
X380870D01*
G01X379850Y52580D02*
X378330D01*
G01X383310Y50000D02*
Y55000D01*
X384570D01*
X385080Y54750D01*
X385460Y54420D01*
X385780Y53920D01*
X386030Y53330D01*
X386090Y52500D01*
X386030Y51670D01*
X385780Y51080D01*
X385460Y50580D01*
X385080Y50250D01*
X384570Y50000D01*
X383310D01*
G01X357930Y40000D02*
Y45000D01*
X359450D01*
X359960Y44750D01*
X360340Y44170D01*
X360470Y43500D01*
X360340Y42830D01*
X360020Y42330D01*
X359450Y42080D01*
X357930D01*
G01X363030Y45000D02*
Y40000D01*
X365570D01*
G01X367820D02*
X369400Y45000D01*
X370980Y40000D01*
G01X370410Y41750D02*
X368390D01*
G01X374500Y45000D02*
Y40000D01*
G01X373040Y45000D02*
X375960D01*
G01X380870Y40000D02*
X378330D01*
Y45000D01*
X380870D01*
G01X379850Y42580D02*
X378330D01*
G01X383310Y40000D02*
Y45000D01*
X384570D01*
X385080Y44750D01*
X385460Y44420D01*
X385780Y43920D01*
X386030Y43330D01*
X386090Y42500D01*
X386030Y41670D01*
X385780Y41080D01*
X385460Y40580D01*
X385080Y40250D01*
X384570Y40000D01*
X383310D01*
G01X357930Y30000D02*
Y35000D01*
X359450D01*
X359960Y34750D01*
X360340Y34170D01*
X360470Y33500D01*
X360340Y32830D01*
X360020Y32330D01*
X359450Y32080D01*
X357930D01*
G01X363030Y35000D02*
Y30000D01*
X365570D01*
G01X367820D02*
X369400Y35000D01*
X370980Y30000D01*
G01X370410Y31750D02*
X368390D01*
G01X374500Y35000D02*
Y30000D01*
G01X373040Y35000D02*
X375960D01*
G01X380870Y30000D02*
X378330D01*
Y35000D01*
X380870D01*
G01X379850Y32580D02*
X378330D01*
G01X383310Y30000D02*
Y35000D01*
X384570D01*
X385080Y34750D01*
X385460Y34420D01*
X385780Y33920D01*
X386030Y33330D01*
X386090Y32500D01*
X386030Y31670D01*
X385780Y31080D01*
X385460Y30580D01*
X385080Y30250D01*
X384570Y30000D01*
X383310D01*
G01X357930Y60000D02*
Y65000D01*
X359450D01*
X359960Y64750D01*
X360340Y64170D01*
X360470Y63500D01*
X360340Y62830D01*
X360020Y62330D01*
X359450Y62080D01*
X357930D01*
G01X363030Y65000D02*
Y60000D01*
X365570D01*
G01X367820D02*
X369400Y65000D01*
X370980Y60000D01*
G01X370410Y61750D02*
X368390D01*
G01X374500Y65000D02*
Y60000D01*
G01X373040Y65000D02*
X375960D01*
G01X380870Y60000D02*
X378330D01*
Y65000D01*
X380870D01*
G01X379850Y62580D02*
X378330D01*
G01X383310Y60000D02*
Y65000D01*
X384570D01*
X385080Y64750D01*
X385460Y64420D01*
X385780Y63920D01*
X386030Y63330D01*
X386090Y62500D01*
X386030Y61670D01*
X385780Y61080D01*
X385460Y60580D01*
X385080Y60250D01*
X384570Y60000D01*
X383310D01*
G01X410110Y21000D02*
X410490Y20420D01*
X410990Y20080D01*
X411560Y20000D01*
X412070Y20080D01*
X412580Y20500D01*
X412890Y21000D01*
X412960Y21500D01*
X412830Y22080D01*
X412390Y22500D01*
X411940Y22670D01*
X411370D01*
G01X411940D02*
X412320Y22920D01*
X412640Y23330D01*
X412770Y23830D01*
X412640Y24330D01*
X412320Y24750D01*
X411750Y25000D01*
X411180Y24920D01*
X410610Y24580D01*
G01X416600Y25000D02*
X416090Y24830D01*
X415710Y24420D01*
X415460Y23920D01*
X415270Y23250D01*
X415210Y22500D01*
X415270Y21750D01*
X415460Y21080D01*
X415710Y20580D01*
X416090Y20170D01*
X416600Y20000D01*
X417110Y20170D01*
X417490Y20580D01*
X417740Y21080D01*
X417930Y21750D01*
X417990Y22500D01*
X417930Y23250D01*
X417740Y23920D01*
X417490Y24420D01*
X417110Y24830D01*
X416600Y25000D01*
G01X412850Y14170D02*
X413230Y14670D01*
X413670Y14920D01*
X414180Y15000D01*
X414810Y14830D01*
X415250Y14420D01*
X415380Y13920D01*
X415320Y13420D01*
X415060Y13000D01*
X413800Y12170D01*
X413230Y11580D01*
X412850Y10750D01*
X412720Y10000D01*
X415380D01*
G01X412850Y2080D02*
X413290Y2670D01*
X413670Y3000D01*
X414180Y3170D01*
X414620Y3000D01*
X414940Y2670D01*
X415190Y2170D01*
X415250Y1580D01*
X415190Y1080D01*
X414940Y580D01*
X414560Y170D01*
X414110Y0D01*
X413610Y170D01*
X413160Y670D01*
X412910Y1420D01*
X412850Y2250D01*
X412970Y3330D01*
X413160Y3920D01*
X413480Y4500D01*
X413920Y4920D01*
X414370Y5000D01*
X414810Y4830D01*
X415130Y4420D01*
G01X413920Y50000D02*
X414050Y51080D01*
X414240Y52000D01*
X414490Y52830D01*
X414810Y53750D01*
X415320Y55000D01*
X412780D01*
G01X410110Y40750D02*
X410490Y40330D01*
X410930Y40080D01*
X411500Y40000D01*
X412070Y40170D01*
X412510Y40500D01*
X412830Y41080D01*
X412890Y41750D01*
X412770Y42420D01*
X412450Y42830D01*
X412010Y43170D01*
X411560Y43250D01*
X411120Y43170D01*
X410550Y42830D01*
X410740Y45000D01*
X412450D01*
G01X416470Y40000D02*
X416600Y41080D01*
X416790Y42000D01*
X417040Y42830D01*
X417360Y43750D01*
X417870Y45000D01*
X415330D01*
G01X412260Y30000D02*
Y35000D01*
X409920Y31420D01*
X413080D01*
G01X416600Y30000D02*
X417040Y30080D01*
X417550Y30330D01*
X417870Y30750D01*
X417990Y31330D01*
X417870Y31920D01*
X417490Y32420D01*
X416920Y32670D01*
X416280D01*
X415900Y32830D01*
X415590Y33250D01*
X415460Y33830D01*
X415650Y34420D01*
X416090Y34830D01*
X416600Y35000D01*
X417110Y34830D01*
X417550Y34420D01*
X417740Y33830D01*
X417610Y33250D01*
X417300Y32830D01*
X416920Y32670D01*
X416280D01*
X415710Y32420D01*
X415330Y31920D01*
X415210Y31330D01*
X415330Y30750D01*
X415650Y30330D01*
X416160Y30080D01*
X416600Y30000D01*
G01X408950Y60000D02*
X408440Y60080D01*
X408000Y60420D01*
X407620Y60920D01*
X407370Y61500D01*
X407240Y62170D01*
Y62830D01*
X407370Y63500D01*
X407620Y64080D01*
X408000Y64580D01*
X408440Y64920D01*
X408950Y65000D01*
X409460Y64920D01*
X409900Y64580D01*
X410280Y64080D01*
X410530Y63500D01*
X410660Y62830D01*
Y62170D01*
X410530Y61500D01*
X410280Y60920D01*
X409900Y60420D01*
X409460Y60080D01*
X408950Y60000D01*
G01X409460Y61330D02*
X410220Y60000D01*
G01X414050Y65000D02*
Y60000D01*
G01X412590Y65000D02*
X415510D01*
G01X419150Y60000D02*
Y62250D01*
X417880Y65000D01*
G01X420420D02*
X419150Y62250D01*
G54D13*
X49950Y48800D03*
X45400Y176800D03*
X55400D03*
Y206800D03*
X45400D03*
X45100Y221600D03*
X55100D03*
Y251600D03*
X45100D03*
X67900Y100200D03*
X77900D03*
X87900D03*
Y130200D03*
X77900D03*
X67900D03*
X65400Y176800D03*
X75400D03*
X85400D03*
Y206800D03*
X75400D03*
X65400D03*
X65100Y221600D03*
X75100D03*
X85100D03*
Y251600D03*
X75100D03*
X65100D03*
X101200Y28600D03*
X89390D03*
X113010D03*
X89950Y48800D03*
X97900Y100200D03*
X107900D03*
X117900D03*
Y130200D03*
X107900D03*
X97900D03*
X95400Y176800D03*
X105400D03*
X115400D03*
Y206800D03*
X105400D03*
X95400D03*
X95100Y221600D03*
X105100D03*
X115100D03*
Y251600D03*
X105100D03*
X95100D03*
X127900Y100200D03*
Y130200D03*
X125400Y176800D03*
Y206800D03*
X125100Y221600D03*
X135100D03*
Y251600D03*
X125100D03*
G54D23*
G01X-34190Y-15000D02*
Y-8700D01*
X-32150Y-13950D01*
X-30110Y-8700D01*
Y-15000D01*
G01X-24280D02*
X-27420D01*
Y-8700D01*
X-24280D01*
G01X-25540Y-11740D02*
X-27420D01*
G01X-17830Y-9230D02*
X-18300Y-8910D01*
X-18840Y-8700D01*
X-19470D01*
X-20180Y-9020D01*
X-20720Y-9540D01*
X-21120Y-10170D01*
X-21430Y-11220D01*
X-21510Y-12170D01*
X-21350Y-13110D01*
X-21120Y-13740D01*
X-20650Y-14370D01*
X-20100Y-14790D01*
X-19550Y-15000D01*
X-19000D01*
X-18450Y-14790D01*
X-17980Y-14480D01*
X-17590Y-14060D01*
G01X-14900Y-15000D02*
Y-8700D01*
G01X-11600D02*
Y-15000D01*
G01Y-11850D02*
X-14900D01*
G54D14*
X51600Y147900D03*
Y157900D03*
X32400Y294700D03*
Y274700D03*
X33000Y358700D03*
Y378700D03*
X61600Y147900D03*
X71600D03*
X81600D03*
X61600Y157900D03*
X71600D03*
X81600D03*
X80400Y274300D03*
Y294300D03*
X62400Y294700D03*
Y274700D03*
X81200Y316700D03*
X81100Y358300D03*
X81200Y336700D03*
X63000Y358700D03*
X81100Y378300D03*
X63000Y378700D03*
X79900Y418300D03*
Y398300D03*
X91600Y147900D03*
X101600D03*
X111600D03*
X91600Y157900D03*
X101600D03*
X111600D03*
X110400Y274300D03*
Y294300D03*
X111200Y316700D03*
X111100Y358300D03*
X111200Y336700D03*
X111100Y378300D03*
X109900Y418300D03*
Y398300D03*
X121600Y147900D03*
Y157900D03*
X125200Y274300D03*
Y294300D03*
X128700Y358300D03*
Y378300D03*
X155200Y274300D03*
Y294300D03*
X158700Y358300D03*
Y378300D03*
G54D24*
G01X-2500Y17500D02*
Y-2500D01*
G01D02*
X17500D01*
G01X-2500Y602500D02*
Y582500D01*
G01X17500Y602500D02*
X-2500D01*
G01X182500Y-2500D02*
X202500D01*
G01D02*
Y17500D01*
G01Y582500D02*
Y602500D01*
G01D02*
X182500D01*
G54D15*
X75610Y28600D03*
X126790D03*
G54D25*
G01X40Y599950D02*
Y-50D01*
X200040D01*
Y599950D01*
X40D01*
G54D16*
X249500Y22500D03*
G54D17*
Y12500D03*
G54D18*
Y2500D03*
G54D19*
Y52500D03*
M02*
