M48
INCH,LZ
T01C.086
T02C.042
T03C.038
T04C.035
T05C.02
T06C.125
;LEADER: 12 
;HEADER: 
;CODE  : ASCII 
;FILE  : NCdrill-1-2.drl for  ... layers TOP and BOTTOM
;DESIGN: ee174tutorial.brd
;T01 Holesize 1. = 86.000000 Tolerance = +0.000000/-0.000000 PLATED MILS Quantity = 2
;T02 Holesize 2. = 42.000000 Tolerance = +0.000000/-0.000000 PLATED MILS Quantity = 30
;T03 Holesize 3. = 38.000000 Tolerance = +0.000000/-0.000000 PLATED MILS Quantity = 48
;T04 Holesize 4. = 35.000000 Tolerance = +0.000000/-0.000000 PLATED MILS Quantity = 57
;T05 Holesize 5. = 20.000000 Tolerance = +0.000000/-0.000000 PLATED MILS Quantity = 7
;T06 Holesize 6. = 125.000000 Tolerance = +0.000000/-0.000000 NON_PLATED MILS Quantity = 6
%
G90
T01
X007561Y00286
X012679Y00286
T02
X00104Y04576
X00204Y04576
X0024Y05656
R09Y-001
X01756Y05716
R09Y-001
X00988Y04424
X00988Y04524
X01088Y04424
X01088Y04524
X01188Y04424
X01188Y04524
X01459Y00292
X01559Y00292
T03
X00516Y01579
X00516Y01479
X00616Y01579
X00616Y01479
X00716Y01579
X00716Y01479
X00816Y01579
X00816Y01479
X00916Y01579
X00916Y01479
X01016Y01579
X01016Y01479
X01116Y01579
X01116Y01479
X01216Y01579
X01216Y01479
X01104Y02743
X00804Y02743
X01104Y02943
X00804Y02943
X00324Y02947
X00624Y02947
X00324Y02747
X00624Y02747
X0033Y03787
X0063Y03787
X0033Y03587
X0063Y03587
X00811Y03783
X01111Y03783
X00811Y03583
X01111Y03583
X00799Y04183
X01099Y04183
X00799Y03983
X01099Y03983
X01287Y03783
X01587Y03783
X01287Y03583
X01587Y03583
X00812Y03367
X01112Y03367
X00812Y03167
X01112Y03167
X01552Y02743
X01252Y02743
X01552Y02943
X01252Y02943
T04
X00679Y01002
R06X001
X01279Y01302
R06X-001
X00454Y01768
R08X001
X01254Y02068
R08X-001
X01351Y02516
R09X-001
X00451Y02216
R09X001
X008995Y00488
X004995Y00488
X011301Y00286
R02X-001181
T05
X00255Y0233
X00625Y0186
X0085Y0513
X00787Y04645
X00905Y02395
X00418Y04423
X00633Y04468
T06
X001Y001
X003Y034
X001Y059
X017Y034
X019Y001
X019Y059
M30
